<?xml version="1.0" encoding="utf-8" standalone="no"?>
<!DOCTYPE svg PUBLIC "-//W3C//DTD SVG 1.1//EN"
  "http://www.w3.org/Graphics/SVG/1.1/DTD/svg11.dtd">
<svg xmlns:xlink="http://www.w3.org/1999/xlink" width="303.2955pt" height="120.4245pt" viewBox="0 0 303.2955 120.4245" xmlns="http://www.w3.org/2000/svg" version="1.1">
 <metadata>
  <rdf:RDF xmlns:dc="http://purl.org/dc/elements/1.1/" xmlns:cc="http://creativecommons.org/ns#" xmlns:rdf="http://www.w3.org/1999/02/22-rdf-syntax-ns#">
   <cc:Work>
    <dc:type rdf:resource="http://purl.org/dc/dcmitype/StillImage"/>
    <dc:date>2025-03-02T07:47:54.347634</dc:date>
    <dc:format>image/svg+xml</dc:format>
    <dc:creator>
     <cc:Agent>
      <dc:title>Matplotlib v3.10.1, https://matplotlib.org/</dc:title>
     </cc:Agent>
    </dc:creator>
   </cc:Work>
  </rdf:RDF>
 </metadata>
 <defs>
  <style type="text/css">*{stroke-linejoin: round; stroke-linecap: butt}</style>
 </defs>
 <g id="figure_1">
  <g id="patch_1">
   <path d="M 0 120.4245 
L 303.2955 120.4245 
L 303.2955 0 
L 0 0 
L 0 120.4245 
z
" style="fill: none"/>
  </g>
  <g id="axes_1">
   <g id="patch_2">
    <path d="M 102.051 82.71225 
L 102.407984 82.709418 
L 102.764879 82.700922 
L 103.121593 82.686765 
L 103.478038 82.66695 
L 103.834124 82.641482 
L 104.189761 82.610368 
L 104.544859 82.573615 
L 104.89933 82.531233 
L 105.253084 82.483232 
L 105.606031 82.429625 
L 105.958084 82.370424 
L 106.309153 82.305646 
L 106.65915 82.235305 
L 107.007987 82.15942 
L 107.355576 82.07801 
L 107.70183 81.991096 
L 108.046661 81.898699 
L 108.389983 81.800842 
L 108.731708 81.69755 
L 109.071753 81.58885 
L 109.410029 81.474768 
L 109.746453 81.355334 
L 110.08094 81.230577 
L 110.413405 81.100528 
L 110.743765 80.965222 
L 111.071937 80.82469 
L 111.397838 80.67897 
L 111.721386 80.528097 
L 112.042499 80.37211 
L 112.361097 80.211048 
L 112.677099 80.044951 
L 112.990427 79.873861 
L 113.301 79.697822 
L 113.608741 79.516877 
L 113.913573 79.331072 
L 114.215418 79.140454 
L 114.514201 78.945072 
L 114.809847 78.744973 
L 115.10228 78.540209 
L 115.391428 78.330831 
L 115.677218 78.116891 
L 115.959577 77.898445 
L 116.238435 77.675545 
L 116.513721 77.44825 
L 116.785367 77.216615 
L 117.053303 76.9807 
L 117.317462 76.740563 
L 117.577778 76.496266 
L 117.834185 76.247869 
L 118.086619 75.995435 
L 118.335016 75.739028 
L 118.579313 75.478712 
L 118.81945 75.214553 
L 119.055365 74.946617 
L 119.287 74.674971 
L 119.514295 74.399685 
L 119.737195 74.120827 
L 119.955641 73.838468 
L 120.169581 73.552678 
L 120.378959 73.26353 
L 120.583723 72.971097 
L 120.783822 72.675451 
L 120.979204 72.376668 
L 121.169822 72.074823 
L 121.355627 71.769991 
L 121.536572 71.46225 
L 121.712611 71.151677 
L 121.883701 70.838349 
L 122.049798 70.522347 
L 122.21086 70.203749 
L 122.366847 69.882636 
L 122.51772 69.559088 
L 122.66344 69.233187 
L 122.803972 68.905015 
L 122.939278 68.574655 
L 123.069327 68.24219 
L 123.194084 67.907703 
L 123.313518 67.571279 
L 123.4276 67.233003 
L 123.5363 66.892958 
L 123.639592 66.551233 
L 123.737449 66.207911 
L 123.829846 65.86308 
L 123.91676 65.516826 
L 123.99817 65.169237 
L 124.074055 64.8204 
L 124.144396 64.470403 
L 124.209174 64.119334 
L 124.268375 63.767281 
L 124.321982 63.414334 
L 124.369983 63.06058 
L 124.412365 62.706109 
L 124.449118 62.351011 
L 124.480232 61.995374 
L 124.5057 61.639288 
L 124.525515 61.282843 
L 124.539672 60.926129 
L 124.548168 60.569234 
L 124.551 60.21225 
L 124.551 60.21225 
L 124.548168 59.855266 
L 124.539672 59.498371 
L 124.525515 59.141657 
L 124.5057 58.785212 
L 124.480232 58.429126 
L 124.449118 58.073489 
L 124.412365 57.718391 
L 124.369983 57.36392 
L 124.321982 57.010166 
L 124.268375 56.657219 
L 124.209174 56.305166 
L 124.144396 55.954097 
L 124.074055 55.6041 
L 123.99817 55.255263 
L 123.91676 54.907674 
L 123.829846 54.56142 
L 123.737449 54.216589 
L 123.639592 53.873267 
L 123.5363 53.531542 
L 123.4276 53.191497 
L 123.313518 52.853221 
L 123.194084 52.516797 
L 123.069327 52.18231 
L 122.939278 51.849845 
L 122.803972 51.519485 
L 122.66344 51.191313 
L 122.51772 50.865412 
L 122.366847 50.541864 
L 122.21086 50.220751 
L 122.049798 49.902153 
L 121.883701 49.586151 
L 121.712611 49.272823 
L 121.536572 48.96225 
L 121.355627 48.654509 
L 121.169822 48.349677 
L 120.979204 48.047832 
L 120.783822 47.749049 
L 120.583723 47.453403 
L 120.378959 47.16097 
L 120.169581 46.871822 
L 119.955641 46.586032 
L 119.737195 46.303673 
L 119.514295 46.024815 
L 119.287 45.749529 
L 119.055365 45.477883 
L 118.81945 45.209947 
L 118.579313 44.945788 
L 118.335016 44.685472 
L 118.086619 44.429065 
L 117.834185 44.176631 
L 117.577778 43.928234 
L 117.317462 43.683937 
L 117.053303 43.4438 
L 116.785367 43.207885 
L 116.513721 42.97625 
L 116.238435 42.748955 
L 115.959577 42.526055 
L 115.677218 42.307609 
L 115.391428 42.093669 
L 115.10228 41.884291 
L 114.809847 41.679527 
L 114.514201 41.479428 
L 114.215418 41.284046 
L 113.913573 41.093428 
L 113.608741 40.907623 
L 113.301 40.726678 
L 112.990427 40.550639 
L 112.677099 40.379549 
L 112.361097 40.213452 
L 112.042499 40.05239 
L 111.721386 39.896403 
L 111.397838 39.74553 
L 111.071937 39.59981 
L 110.743765 39.459278 
L 110.413405 39.323972 
L 110.08094 39.193923 
L 109.746453 39.069166 
L 109.410029 38.949732 
L 109.071753 38.83565 
L 108.731708 38.72695 
L 108.389983 38.623658 
L 108.046661 38.525801 
L 107.70183 38.433404 
L 107.355576 38.34649 
L 107.007987 38.26508 
L 106.65915 38.189195 
L 106.309153 38.118854 
L 105.958084 38.054076 
L 105.606031 37.994875 
L 105.253084 37.941268 
L 104.89933 37.893267 
L 104.544859 37.850885 
L 104.189761 37.814132 
L 103.834124 37.783018 
L 103.478038 37.75755 
L 103.121593 37.737735 
L 102.764879 37.723578 
L 102.407984 37.715082 
L 102.051 37.71225 
L 27.18 37.71225 
L 26.823016 37.715082 
L 26.466121 37.723578 
L 26.109407 37.737735 
L 25.752962 37.75755 
L 25.396876 37.783018 
L 25.041239 37.814132 
L 24.686141 37.850885 
L 24.33167 37.893267 
L 23.977916 37.941268 
L 23.624969 37.994875 
L 23.272916 38.054076 
L 22.921847 38.118854 
L 22.57185 38.189195 
L 22.223013 38.26508 
L 21.875424 38.34649 
L 21.52917 38.433404 
L 21.184339 38.525801 
L 20.841017 38.623658 
L 20.499292 38.72695 
L 20.159247 38.83565 
L 19.820971 38.949732 
L 19.484547 39.069166 
L 19.15006 39.193923 
L 18.817595 39.323972 
L 18.487235 39.459278 
L 18.159063 39.59981 
L 17.833162 39.74553 
L 17.509614 39.896403 
L 17.188501 40.05239 
L 16.869903 40.213452 
L 16.553901 40.379549 
L 16.240573 40.550639 
L 15.93 40.726678 
L 15.622259 40.907623 
L 15.317427 41.093428 
L 15.015582 41.284046 
L 14.716799 41.479428 
L 14.421153 41.679527 
L 14.12872 41.884291 
L 13.839572 42.093669 
L 13.553782 42.307609 
L 13.271423 42.526055 
L 12.992565 42.748955 
L 12.717279 42.97625 
L 12.445633 43.207885 
L 12.177697 43.4438 
L 11.913538 43.683937 
L 11.653222 43.928234 
L 11.396815 44.176631 
L 11.144381 44.429065 
L 10.895984 44.685472 
L 10.651687 44.945788 
L 10.41155 45.209947 
L 10.175635 45.477883 
L 9.944 45.749529 
L 9.716705 46.024815 
L 9.493805 46.303673 
L 9.275359 46.586032 
L 9.061419 46.871822 
L 8.852041 47.16097 
L 8.647277 47.453403 
L 8.447178 47.749049 
L 8.251796 48.047832 
L 8.061178 48.349677 
L 7.875373 48.654509 
L 7.694428 48.96225 
L 7.518389 49.272823 
L 7.347299 49.586151 
L 7.181202 49.902153 
L 7.02014 50.220751 
L 6.864153 50.541864 
L 6.71328 50.865412 
L 6.56756 51.191313 
L 6.427028 51.519485 
L 6.291722 51.849845 
L 6.161673 52.18231 
L 6.036916 52.516797 
L 5.917482 52.853221 
L 5.8034 53.191497 
L 5.6947 53.531542 
L 5.591408 53.873267 
L 5.493551 54.216589 
L 5.401154 54.56142 
L 5.31424 54.907674 
L 5.23283 55.255263 
L 5.156945 55.6041 
L 5.086604 55.954097 
L 5.021826 56.305166 
L 4.962625 56.657219 
L 4.909018 57.010166 
L 4.861017 57.36392 
L 4.818635 57.718391 
L 4.781882 58.073489 
L 4.750768 58.429126 
L 4.7253 58.785212 
L 4.705485 59.141657 
L 4.691328 59.498371 
L 4.682832 59.855266 
L 4.68 60.21225 
L 4.68 60.21225 
L 4.682832 60.569234 
L 4.691328 60.926129 
L 4.705485 61.282843 
L 4.7253 61.639288 
L 4.750768 61.995374 
L 4.781882 62.351011 
L 4.818635 62.706109 
L 4.861017 63.06058 
L 4.909018 63.414334 
L 4.962625 63.767281 
L 5.021826 64.119334 
L 5.086604 64.470403 
L 5.156945 64.8204 
L 5.23283 65.169237 
L 5.31424 65.516826 
L 5.401154 65.86308 
L 5.493551 66.207911 
L 5.591408 66.551233 
L 5.6947 66.892958 
L 5.8034 67.233003 
L 5.917482 67.571279 
L 6.036916 67.907703 
L 6.161673 68.24219 
L 6.291722 68.574655 
L 6.427028 68.905015 
L 6.56756 69.233187 
L 6.71328 69.559088 
L 6.864153 69.882636 
L 7.02014 70.203749 
L 7.181202 70.522347 
L 7.347299 70.838349 
L 7.518389 71.151677 
L 7.694428 71.46225 
L 7.875373 71.769991 
L 8.061178 72.074823 
L 8.251796 72.376668 
L 8.447178 72.675451 
L 8.647277 72.971097 
L 8.852041 73.26353 
L 9.061419 73.552678 
L 9.275359 73.838468 
L 9.493805 74.120827 
L 9.716705 74.399685 
L 9.944 74.674971 
L 10.175635 74.946617 
L 10.41155 75.214553 
L 10.651687 75.478712 
L 10.895984 75.739028 
L 11.144381 75.995435 
L 11.396815 76.247869 
L 11.653222 76.496266 
L 11.913538 76.740563 
L 12.177697 76.9807 
L 12.445633 77.216615 
L 12.717279 77.44825 
L 12.992565 77.675545 
L 13.271423 77.898445 
L 13.553782 78.116891 
L 13.839572 78.330831 
L 14.12872 78.540209 
L 14.421153 78.744973 
L 14.716799 78.945072 
L 15.015582 79.140454 
L 15.317427 79.331072 
L 15.622259 79.516877 
L 15.93 79.697822 
L 16.240573 79.873861 
L 16.553901 80.044951 
L 16.869903 80.211048 
L 17.188501 80.37211 
L 17.509614 80.528097 
L 17.833162 80.67897 
L 18.159063 80.82469 
L 18.487235 80.965222 
L 18.817595 81.100528 
L 19.15006 81.230577 
L 19.484547 81.355334 
L 19.820971 81.474768 
L 20.159247 81.58885 
L 20.499292 81.69755 
L 20.841017 81.800842 
L 21.184339 81.898699 
L 21.52917 81.991096 
L 21.875424 82.07801 
L 22.223013 82.15942 
L 22.57185 82.235305 
L 22.921847 82.305646 
L 23.272916 82.370424 
L 23.624969 82.429625 
L 23.977916 82.483232 
L 24.33167 82.531233 
L 24.686141 82.573615 
L 25.041239 82.610368 
L 25.396876 82.641482 
L 25.752962 82.66695 
L 26.109407 82.686765 
L 26.466121 82.700922 
L 26.823016 82.709418 
L 27.18 82.71225 
L 102.051 82.71225 
z
" clip-path="url(#pdea3995579)" style="fill: none; stroke: #000000; stroke-width: 2; stroke-linecap: round"/>
   </g>
   <g id="patch_3">
    <path d="M 276.1155 82.71225 
L 276.472484 82.709418 
L 276.829379 82.700922 
L 277.186093 82.686765 
L 277.542538 82.66695 
L 277.898624 82.641482 
L 278.254261 82.610368 
L 278.609359 82.573615 
L 278.96383 82.531233 
L 279.317584 82.483232 
L 279.670531 82.429625 
L 280.022584 82.370424 
L 280.373653 82.305646 
L 280.72365 82.235305 
L 281.072487 82.15942 
L 281.420076 82.07801 
L 281.76633 81.991096 
L 282.111161 81.898699 
L 282.454483 81.800842 
L 282.796208 81.69755 
L 283.136253 81.58885 
L 283.474529 81.474768 
L 283.810953 81.355334 
L 284.14544 81.230577 
L 284.477905 81.100528 
L 284.808265 80.965222 
L 285.136437 80.82469 
L 285.462338 80.67897 
L 285.785886 80.528097 
L 286.106999 80.37211 
L 286.425597 80.211048 
L 286.741599 80.044951 
L 287.054927 79.873861 
L 287.3655 79.697822 
L 287.673241 79.516877 
L 287.978073 79.331072 
L 288.279918 79.140454 
L 288.578701 78.945072 
L 288.874347 78.744973 
L 289.16678 78.540209 
L 289.455928 78.330831 
L 289.741718 78.116891 
L 290.024077 77.898445 
L 290.302935 77.675545 
L 290.578221 77.44825 
L 290.849867 77.216615 
L 291.117803 76.9807 
L 291.381962 76.740563 
L 291.642278 76.496266 
L 291.898685 76.247869 
L 292.151119 75.995435 
L 292.399516 75.739028 
L 292.643813 75.478712 
L 292.88395 75.214553 
L 293.119865 74.946617 
L 293.3515 74.674971 
L 293.578795 74.399685 
L 293.801695 74.120827 
L 294.020141 73.838468 
L 294.234081 73.552678 
L 294.443459 73.26353 
L 294.648223 72.971097 
L 294.848322 72.675451 
L 295.043704 72.376668 
L 295.234322 72.074823 
L 295.420127 71.769991 
L 295.601072 71.46225 
L 295.777111 71.151677 
L 295.948201 70.838349 
L 296.114298 70.522347 
L 296.27536 70.203749 
L 296.431347 69.882636 
L 296.58222 69.559088 
L 296.72794 69.233187 
L 296.868472 68.905015 
L 297.003778 68.574655 
L 297.133827 68.24219 
L 297.258584 67.907703 
L 297.378018 67.571279 
L 297.4921 67.233003 
L 297.6008 66.892958 
L 297.704092 66.551233 
L 297.801949 66.207911 
L 297.894346 65.86308 
L 297.98126 65.516826 
L 298.06267 65.169237 
L 298.138555 64.8204 
L 298.208896 64.470403 
L 298.273674 64.119334 
L 298.332875 63.767281 
L 298.386482 63.414334 
L 298.434483 63.06058 
L 298.476865 62.706109 
L 298.513618 62.351011 
L 298.544732 61.995374 
L 298.5702 61.639288 
L 298.590015 61.282843 
L 298.604172 60.926129 
L 298.612668 60.569234 
L 298.6155 60.21225 
L 298.6155 60.21225 
L 298.612668 59.855266 
L 298.604172 59.498371 
L 298.590015 59.141657 
L 298.5702 58.785212 
L 298.544732 58.429126 
L 298.513618 58.073489 
L 298.476865 57.718391 
L 298.434483 57.36392 
L 298.386482 57.010166 
L 298.332875 56.657219 
L 298.273674 56.305166 
L 298.208896 55.954097 
L 298.138555 55.6041 
L 298.06267 55.255263 
L 297.98126 54.907674 
L 297.894346 54.56142 
L 297.801949 54.216589 
L 297.704092 53.873267 
L 297.6008 53.531542 
L 297.4921 53.191497 
L 297.378018 52.853221 
L 297.258584 52.516797 
L 297.133827 52.18231 
L 297.003778 51.849845 
L 296.868472 51.519485 
L 296.72794 51.191313 
L 296.58222 50.865412 
L 296.431347 50.541864 
L 296.27536 50.220751 
L 296.114298 49.902153 
L 295.948201 49.586151 
L 295.777111 49.272823 
L 295.601072 48.96225 
L 295.420127 48.654509 
L 295.234322 48.349677 
L 295.043704 48.047832 
L 294.848322 47.749049 
L 294.648223 47.453403 
L 294.443459 47.16097 
L 294.234081 46.871822 
L 294.020141 46.586032 
L 293.801695 46.303673 
L 293.578795 46.024815 
L 293.3515 45.749529 
L 293.119865 45.477883 
L 292.88395 45.209947 
L 292.643813 44.945788 
L 292.399516 44.685472 
L 292.151119 44.429065 
L 291.898685 44.176631 
L 291.642278 43.928234 
L 291.381962 43.683937 
L 291.117803 43.4438 
L 290.849867 43.207885 
L 290.578221 42.97625 
L 290.302935 42.748955 
L 290.024077 42.526055 
L 289.741718 42.307609 
L 289.455928 42.093669 
L 289.16678 41.884291 
L 288.874347 41.679527 
L 288.578701 41.479428 
L 288.279918 41.284046 
L 287.978073 41.093428 
L 287.673241 40.907623 
L 287.3655 40.726678 
L 287.054927 40.550639 
L 286.741599 40.379549 
L 286.425597 40.213452 
L 286.106999 40.05239 
L 285.785886 39.896403 
L 285.462338 39.74553 
L 285.136437 39.59981 
L 284.808265 39.459278 
L 284.477905 39.323972 
L 284.14544 39.193923 
L 283.810953 39.069166 
L 283.474529 38.949732 
L 283.136253 38.83565 
L 282.796208 38.72695 
L 282.454483 38.623658 
L 282.111161 38.525801 
L 281.76633 38.433404 
L 281.420076 38.34649 
L 281.072487 38.26508 
L 280.72365 38.189195 
L 280.373653 38.118854 
L 280.022584 38.054076 
L 279.670531 37.994875 
L 279.317584 37.941268 
L 278.96383 37.893267 
L 278.609359 37.850885 
L 278.254261 37.814132 
L 277.898624 37.783018 
L 277.542538 37.75755 
L 277.186093 37.737735 
L 276.829379 37.723578 
L 276.472484 37.715082 
L 276.1155 37.71225 
L 213.1155 37.71225 
L 212.758516 37.715082 
L 212.401621 37.723578 
L 212.044907 37.737735 
L 211.688462 37.75755 
L 211.332376 37.783018 
L 210.976739 37.814132 
L 210.621641 37.850885 
L 210.26717 37.893267 
L 209.913416 37.941268 
L 209.560469 37.994875 
L 209.208416 38.054076 
L 208.857347 38.118854 
L 208.50735 38.189195 
L 208.158513 38.26508 
L 207.810924 38.34649 
L 207.46467 38.433404 
L 207.119839 38.525801 
L 206.776517 38.623658 
L 206.434792 38.72695 
L 206.094747 38.83565 
L 205.756471 38.949732 
L 205.420047 39.069166 
L 205.08556 39.193923 
L 204.753095 39.323972 
L 204.422735 39.459278 
L 204.094563 39.59981 
L 203.768662 39.74553 
L 203.445114 39.896403 
L 203.124001 40.05239 
L 202.805403 40.213452 
L 202.489401 40.379549 
L 202.176073 40.550639 
L 201.8655 40.726678 
L 201.557759 40.907623 
L 201.252927 41.093428 
L 200.951082 41.284046 
L 200.652299 41.479428 
L 200.356653 41.679527 
L 200.06422 41.884291 
L 199.775072 42.093669 
L 199.489282 42.307609 
L 199.206923 42.526055 
L 198.928065 42.748955 
L 198.652779 42.97625 
L 198.381133 43.207885 
L 198.113197 43.4438 
L 197.849038 43.683937 
L 197.588722 43.928234 
L 197.332315 44.176631 
L 197.079881 44.429065 
L 196.831484 44.685472 
L 196.587187 44.945788 
L 196.34705 45.209947 
L 196.111135 45.477883 
L 195.8795 45.749529 
L 195.652205 46.024815 
L 195.429305 46.303673 
L 195.210859 46.586032 
L 194.996919 46.871822 
L 194.787541 47.16097 
L 194.582777 47.453403 
L 194.382678 47.749049 
L 194.187296 48.047832 
L 193.996678 48.349677 
L 193.810873 48.654509 
L 193.629928 48.96225 
L 193.453889 49.272823 
L 193.282799 49.586151 
L 193.116702 49.902153 
L 192.95564 50.220751 
L 192.799653 50.541864 
L 192.64878 50.865412 
L 192.50306 51.191313 
L 192.362528 51.519485 
L 192.227222 51.849845 
L 192.097173 52.18231 
L 191.972416 52.516797 
L 191.852982 52.853221 
L 191.7389 53.191497 
L 191.6302 53.531542 
L 191.526908 53.873267 
L 191.429051 54.216589 
L 191.336654 54.56142 
L 191.24974 54.907674 
L 191.16833 55.255263 
L 191.092445 55.6041 
L 191.022104 55.954097 
L 190.957326 56.305166 
L 190.898125 56.657219 
L 190.844518 57.010166 
L 190.796517 57.36392 
L 190.754135 57.718391 
L 190.717382 58.073489 
L 190.686268 58.429126 
L 190.6608 58.785212 
L 190.640985 59.141657 
L 190.626828 59.498371 
L 190.618332 59.855266 
L 190.6155 60.21225 
L 190.6155 60.21225 
L 190.618332 60.569234 
L 190.626828 60.926129 
L 190.640985 61.282843 
L 190.6608 61.639288 
L 190.686268 61.995374 
L 190.717382 62.351011 
L 190.754135 62.706109 
L 190.796517 63.06058 
L 190.844518 63.414334 
L 190.898125 63.767281 
L 190.957326 64.119334 
L 191.022104 64.470403 
L 191.092445 64.8204 
L 191.16833 65.169237 
L 191.24974 65.516826 
L 191.336654 65.86308 
L 191.429051 66.207911 
L 191.526908 66.551233 
L 191.6302 66.892958 
L 191.7389 67.233003 
L 191.852982 67.571279 
L 191.972416 67.907703 
L 192.097173 68.24219 
L 192.227222 68.574655 
L 192.362528 68.905015 
L 192.50306 69.233187 
L 192.64878 69.559088 
L 192.799653 69.882636 
L 192.95564 70.203749 
L 193.116702 70.522347 
L 193.282799 70.838349 
L 193.453889 71.151677 
L 193.629928 71.46225 
L 193.810873 71.769991 
L 193.996678 72.074823 
L 194.187296 72.376668 
L 194.382678 72.675451 
L 194.582777 72.971097 
L 194.787541 73.26353 
L 194.996919 73.552678 
L 195.210859 73.838468 
L 195.429305 74.120827 
L 195.652205 74.399685 
L 195.8795 74.674971 
L 196.111135 74.946617 
L 196.34705 75.214553 
L 196.587187 75.478712 
L 196.831484 75.739028 
L 197.079881 75.995435 
L 197.332315 76.247869 
L 197.588722 76.496266 
L 197.849038 76.740563 
L 198.113197 76.9807 
L 198.381133 77.216615 
L 198.652779 77.44825 
L 198.928065 77.675545 
L 199.206923 77.898445 
L 199.489282 78.116891 
L 199.775072 78.330831 
L 200.06422 78.540209 
L 200.356653 78.744973 
L 200.652299 78.945072 
L 200.951082 79.140454 
L 201.252927 79.331072 
L 201.557759 79.516877 
L 201.8655 79.697822 
L 202.176073 79.873861 
L 202.489401 80.044951 
L 202.805403 80.211048 
L 203.124001 80.37211 
L 203.445114 80.528097 
L 203.768662 80.67897 
L 204.094563 80.82469 
L 204.422735 80.965222 
L 204.753095 81.100528 
L 205.08556 81.230577 
L 205.420047 81.355334 
L 205.756471 81.474768 
L 206.094747 81.58885 
L 206.434792 81.69755 
L 206.776517 81.800842 
L 207.119839 81.898699 
L 207.46467 81.991096 
L 207.810924 82.07801 
L 208.158513 82.15942 
L 208.50735 82.235305 
L 208.857347 82.305646 
L 209.208416 82.370424 
L 209.560469 82.429625 
L 209.913416 82.483232 
L 210.26717 82.531233 
L 210.621641 82.573615 
L 210.976739 82.610368 
L 211.332376 82.641482 
L 211.688462 82.66695 
L 212.044907 82.686765 
L 212.401621 82.700922 
L 212.758516 82.709418 
L 213.1155 82.71225 
L 276.1155 82.71225 
z
" clip-path="url(#pdea3995579)" style="fill: none; stroke: #000000; stroke-width: 2; stroke-linecap: round"/>
   </g>
   <g id="patch_4">
    <path d="M 194.023617 79.304133 
Q 157.58325 115.7445 117.960903 76.122153 
" clip-path="url(#pdea3995579)" style="fill: none; stroke: #000000; stroke-width: 2; stroke-linejoin: miter; stroke-linecap: round"/>
   </g>
   <g id="patch_5">
    <path d="M 188.932448 80.576925 
L 197.205597 76.122153 
L 192.750825 84.395302 
z
" clip-path="url(#pdea3995579)"/>
   </g>
   <g id="patch_6">
    <path d="M 121.142883 41.120367 
Q 157.58325 4.68 197.205597 44.302347 
" clip-path="url(#pdea3995579)" style="fill: none; stroke: #000000; stroke-width: 2; stroke-linejoin: miter; stroke-linecap: round"/>
   </g>
   <g id="patch_7">
    <path d="M 126.234052 39.847575 
L 117.960903 44.302347 
L 122.415675 36.029198 
z
" clip-path="url(#pdea3995579)"/>
   </g>
   <g id="text_1">
    <!-- Picture Server -->
    <g transform="translate(29.439719 62.971625) scale(0.1 -0.1)">
     <defs>
      <path id="DejaVuSans-50" d="M 1259 4147 
L 1259 2394 
L 2053 2394 
Q 2494 2394 2734 2622 
Q 2975 2850 2975 3272 
Q 2975 3691 2734 3919 
Q 2494 4147 2053 4147 
L 1259 4147 
z
M 628 4666 
L 2053 4666 
Q 2838 4666 3239 4311 
Q 3641 3956 3641 3272 
Q 3641 2581 3239 2228 
Q 2838 1875 2053 1875 
L 1259 1875 
L 1259 0 
L 628 0 
L 628 4666 
z
" transform="scale(0.015625)"/>
      <path id="DejaVuSans-69" d="M 603 3500 
L 1178 3500 
L 1178 0 
L 603 0 
L 603 3500 
z
M 603 4863 
L 1178 4863 
L 1178 4134 
L 603 4134 
L 603 4863 
z
" transform="scale(0.015625)"/>
      <path id="DejaVuSans-63" d="M 3122 3366 
L 3122 2828 
Q 2878 2963 2633 3030 
Q 2388 3097 2138 3097 
Q 1578 3097 1268 2742 
Q 959 2388 959 1747 
Q 959 1106 1268 751 
Q 1578 397 2138 397 
Q 2388 397 2633 464 
Q 2878 531 3122 666 
L 3122 134 
Q 2881 22 2623 -34 
Q 2366 -91 2075 -91 
Q 1284 -91 818 406 
Q 353 903 353 1747 
Q 353 2603 823 3093 
Q 1294 3584 2113 3584 
Q 2378 3584 2631 3529 
Q 2884 3475 3122 3366 
z
" transform="scale(0.015625)"/>
      <path id="DejaVuSans-74" d="M 1172 4494 
L 1172 3500 
L 2356 3500 
L 2356 3053 
L 1172 3053 
L 1172 1153 
Q 1172 725 1289 603 
Q 1406 481 1766 481 
L 2356 481 
L 2356 0 
L 1766 0 
Q 1100 0 847 248 
Q 594 497 594 1153 
L 594 3053 
L 172 3053 
L 172 3500 
L 594 3500 
L 594 4494 
L 1172 4494 
z
" transform="scale(0.015625)"/>
      <path id="DejaVuSans-75" d="M 544 1381 
L 544 3500 
L 1119 3500 
L 1119 1403 
Q 1119 906 1312 657 
Q 1506 409 1894 409 
Q 2359 409 2629 706 
Q 2900 1003 2900 1516 
L 2900 3500 
L 3475 3500 
L 3475 0 
L 2900 0 
L 2900 538 
Q 2691 219 2414 64 
Q 2138 -91 1772 -91 
Q 1169 -91 856 284 
Q 544 659 544 1381 
z
M 1991 3584 
L 1991 3584 
z
" transform="scale(0.015625)"/>
      <path id="DejaVuSans-72" d="M 2631 2963 
Q 2534 3019 2420 3045 
Q 2306 3072 2169 3072 
Q 1681 3072 1420 2755 
Q 1159 2438 1159 1844 
L 1159 0 
L 581 0 
L 581 3500 
L 1159 3500 
L 1159 2956 
Q 1341 3275 1631 3429 
Q 1922 3584 2338 3584 
Q 2397 3584 2469 3576 
Q 2541 3569 2628 3553 
L 2631 2963 
z
" transform="scale(0.015625)"/>
      <path id="DejaVuSans-65" d="M 3597 1894 
L 3597 1613 
L 953 1613 
Q 991 1019 1311 708 
Q 1631 397 2203 397 
Q 2534 397 2845 478 
Q 3156 559 3463 722 
L 3463 178 
Q 3153 47 2828 -22 
Q 2503 -91 2169 -91 
Q 1331 -91 842 396 
Q 353 884 353 1716 
Q 353 2575 817 3079 
Q 1281 3584 2069 3584 
Q 2775 3584 3186 3129 
Q 3597 2675 3597 1894 
z
M 3022 2063 
Q 3016 2534 2758 2815 
Q 2500 3097 2075 3097 
Q 1594 3097 1305 2825 
Q 1016 2553 972 2059 
L 3022 2063 
z
" transform="scale(0.015625)"/>
      <path id="DejaVuSans-20" transform="scale(0.015625)"/>
      <path id="DejaVuSans-53" d="M 3425 4513 
L 3425 3897 
Q 3066 4069 2747 4153 
Q 2428 4238 2131 4238 
Q 1616 4238 1336 4038 
Q 1056 3838 1056 3469 
Q 1056 3159 1242 3001 
Q 1428 2844 1947 2747 
L 2328 2669 
Q 3034 2534 3370 2195 
Q 3706 1856 3706 1288 
Q 3706 609 3251 259 
Q 2797 -91 1919 -91 
Q 1588 -91 1214 -16 
Q 841 59 441 206 
L 441 856 
Q 825 641 1194 531 
Q 1563 422 1919 422 
Q 2459 422 2753 634 
Q 3047 847 3047 1241 
Q 3047 1584 2836 1778 
Q 2625 1972 2144 2069 
L 1759 2144 
Q 1053 2284 737 2584 
Q 422 2884 422 3419 
Q 422 4038 858 4394 
Q 1294 4750 2059 4750 
Q 2388 4750 2728 4690 
Q 3069 4631 3425 4513 
z
" transform="scale(0.015625)"/>
      <path id="DejaVuSans-76" d="M 191 3500 
L 800 3500 
L 1894 563 
L 2988 3500 
L 3597 3500 
L 2284 0 
L 1503 0 
L 191 3500 
z
" transform="scale(0.015625)"/>
     </defs>
     <use xlink:href="#DejaVuSans-50"/>
     <use xlink:href="#DejaVuSans-69" transform="translate(58.052734 0)"/>
     <use xlink:href="#DejaVuSans-63" transform="translate(85.835938 0)"/>
     <use xlink:href="#DejaVuSans-74" transform="translate(140.816406 0)"/>
     <use xlink:href="#DejaVuSans-75" transform="translate(180.025391 0)"/>
     <use xlink:href="#DejaVuSans-72" transform="translate(243.404297 0)"/>
     <use xlink:href="#DejaVuSans-65" transform="translate(282.267578 0)"/>
     <use xlink:href="#DejaVuSans-20" transform="translate(343.791016 0)"/>
     <use xlink:href="#DejaVuSans-53" transform="translate(375.578125 0)"/>
     <use xlink:href="#DejaVuSans-65" transform="translate(439.054688 0)"/>
     <use xlink:href="#DejaVuSans-72" transform="translate(500.578125 0)"/>
     <use xlink:href="#DejaVuSans-76" transform="translate(541.691406 0)"/>
     <use xlink:href="#DejaVuSans-65" transform="translate(600.871094 0)"/>
     <use xlink:href="#DejaVuSans-72" transform="translate(662.394531 0)"/>
    </g>
   </g>
   <g id="text_2">
    <!-- ESP32 -->
    <g transform="translate(228.904562 62.971625) scale(0.1 -0.1)">
     <defs>
      <path id="DejaVuSans-45" d="M 628 4666 
L 3578 4666 
L 3578 4134 
L 1259 4134 
L 1259 2753 
L 3481 2753 
L 3481 2222 
L 1259 2222 
L 1259 531 
L 3634 531 
L 3634 0 
L 628 0 
L 628 4666 
z
" transform="scale(0.015625)"/>
      <path id="DejaVuSans-33" d="M 2597 2516 
Q 3050 2419 3304 2112 
Q 3559 1806 3559 1356 
Q 3559 666 3084 287 
Q 2609 -91 1734 -91 
Q 1441 -91 1130 -33 
Q 819 25 488 141 
L 488 750 
Q 750 597 1062 519 
Q 1375 441 1716 441 
Q 2309 441 2620 675 
Q 2931 909 2931 1356 
Q 2931 1769 2642 2001 
Q 2353 2234 1838 2234 
L 1294 2234 
L 1294 2753 
L 1863 2753 
Q 2328 2753 2575 2939 
Q 2822 3125 2822 3475 
Q 2822 3834 2567 4026 
Q 2313 4219 1838 4219 
Q 1578 4219 1281 4162 
Q 984 4106 628 3988 
L 628 4550 
Q 988 4650 1302 4700 
Q 1616 4750 1894 4750 
Q 2613 4750 3031 4423 
Q 3450 4097 3450 3541 
Q 3450 3153 3228 2886 
Q 3006 2619 2597 2516 
z
" transform="scale(0.015625)"/>
      <path id="DejaVuSans-32" d="M 1228 531 
L 3431 531 
L 3431 0 
L 469 0 
L 469 531 
Q 828 903 1448 1529 
Q 2069 2156 2228 2338 
Q 2531 2678 2651 2914 
Q 2772 3150 2772 3378 
Q 2772 3750 2511 3984 
Q 2250 4219 1831 4219 
Q 1534 4219 1204 4116 
Q 875 4013 500 3803 
L 500 4441 
Q 881 4594 1212 4672 
Q 1544 4750 1819 4750 
Q 2544 4750 2975 4387 
Q 3406 4025 3406 3419 
Q 3406 3131 3298 2873 
Q 3191 2616 2906 2266 
Q 2828 2175 2409 1742 
Q 1991 1309 1228 531 
z
" transform="scale(0.015625)"/>
     </defs>
     <use xlink:href="#DejaVuSans-45"/>
     <use xlink:href="#DejaVuSans-53" transform="translate(63.183594 0)"/>
     <use xlink:href="#DejaVuSans-50" transform="translate(126.660156 0)"/>
     <use xlink:href="#DejaVuSans-33" transform="translate(186.962891 0)"/>
     <use xlink:href="#DejaVuSans-32" transform="translate(250.585938 0)"/>
    </g>
   </g>
   <g id="text_3">
    <!-- image.png -->
    <g transform="translate(120.230594 110.171139) scale(0.14 -0.14)">
     <defs>
      <path id="DejaVuSans-6d" d="M 3328 2828 
Q 3544 3216 3844 3400 
Q 4144 3584 4550 3584 
Q 5097 3584 5394 3201 
Q 5691 2819 5691 2113 
L 5691 0 
L 5113 0 
L 5113 2094 
Q 5113 2597 4934 2840 
Q 4756 3084 4391 3084 
Q 3944 3084 3684 2787 
Q 3425 2491 3425 1978 
L 3425 0 
L 2847 0 
L 2847 2094 
Q 2847 2600 2669 2842 
Q 2491 3084 2119 3084 
Q 1678 3084 1418 2786 
Q 1159 2488 1159 1978 
L 1159 0 
L 581 0 
L 581 3500 
L 1159 3500 
L 1159 2956 
Q 1356 3278 1631 3431 
Q 1906 3584 2284 3584 
Q 2666 3584 2933 3390 
Q 3200 3197 3328 2828 
z
" transform="scale(0.015625)"/>
      <path id="DejaVuSans-61" d="M 2194 1759 
Q 1497 1759 1228 1600 
Q 959 1441 959 1056 
Q 959 750 1161 570 
Q 1363 391 1709 391 
Q 2188 391 2477 730 
Q 2766 1069 2766 1631 
L 2766 1759 
L 2194 1759 
z
M 3341 1997 
L 3341 0 
L 2766 0 
L 2766 531 
Q 2569 213 2275 61 
Q 1981 -91 1556 -91 
Q 1019 -91 701 211 
Q 384 513 384 1019 
Q 384 1609 779 1909 
Q 1175 2209 1959 2209 
L 2766 2209 
L 2766 2266 
Q 2766 2663 2505 2880 
Q 2244 3097 1772 3097 
Q 1472 3097 1187 3025 
Q 903 2953 641 2809 
L 641 3341 
Q 956 3463 1253 3523 
Q 1550 3584 1831 3584 
Q 2591 3584 2966 3190 
Q 3341 2797 3341 1997 
z
" transform="scale(0.015625)"/>
      <path id="DejaVuSans-67" d="M 2906 1791 
Q 2906 2416 2648 2759 
Q 2391 3103 1925 3103 
Q 1463 3103 1205 2759 
Q 947 2416 947 1791 
Q 947 1169 1205 825 
Q 1463 481 1925 481 
Q 2391 481 2648 825 
Q 2906 1169 2906 1791 
z
M 3481 434 
Q 3481 -459 3084 -895 
Q 2688 -1331 1869 -1331 
Q 1566 -1331 1297 -1286 
Q 1028 -1241 775 -1147 
L 775 -588 
Q 1028 -725 1275 -790 
Q 1522 -856 1778 -856 
Q 2344 -856 2625 -561 
Q 2906 -266 2906 331 
L 2906 616 
Q 2728 306 2450 153 
Q 2172 0 1784 0 
Q 1141 0 747 490 
Q 353 981 353 1791 
Q 353 2603 747 3093 
Q 1141 3584 1784 3584 
Q 2172 3584 2450 3431 
Q 2728 3278 2906 2969 
L 2906 3500 
L 3481 3500 
L 3481 434 
z
" transform="scale(0.015625)"/>
      <path id="DejaVuSans-2e" d="M 684 794 
L 1344 794 
L 1344 0 
L 684 0 
L 684 794 
z
" transform="scale(0.015625)"/>
      <path id="DejaVuSans-70" d="M 1159 525 
L 1159 -1331 
L 581 -1331 
L 581 3500 
L 1159 3500 
L 1159 2969 
Q 1341 3281 1617 3432 
Q 1894 3584 2278 3584 
Q 2916 3584 3314 3078 
Q 3713 2572 3713 1747 
Q 3713 922 3314 415 
Q 2916 -91 2278 -91 
Q 1894 -91 1617 61 
Q 1341 213 1159 525 
z
M 3116 1747 
Q 3116 2381 2855 2742 
Q 2594 3103 2138 3103 
Q 1681 3103 1420 2742 
Q 1159 2381 1159 1747 
Q 1159 1113 1420 752 
Q 1681 391 2138 391 
Q 2594 391 2855 752 
Q 3116 1113 3116 1747 
z
" transform="scale(0.015625)"/>
      <path id="DejaVuSans-6e" d="M 3513 2113 
L 3513 0 
L 2938 0 
L 2938 2094 
Q 2938 2591 2744 2837 
Q 2550 3084 2163 3084 
Q 1697 3084 1428 2787 
Q 1159 2491 1159 1978 
L 1159 0 
L 581 0 
L 581 3500 
L 1159 3500 
L 1159 2956 
Q 1366 3272 1645 3428 
Q 1925 3584 2291 3584 
Q 2894 3584 3203 3211 
Q 3513 2838 3513 2113 
z
" transform="scale(0.015625)"/>
     </defs>
     <use xlink:href="#DejaVuSans-69"/>
     <use xlink:href="#DejaVuSans-6d" transform="translate(27.783203 0)"/>
     <use xlink:href="#DejaVuSans-61" transform="translate(125.195312 0)"/>
     <use xlink:href="#DejaVuSans-67" transform="translate(186.474609 0)"/>
     <use xlink:href="#DejaVuSans-65" transform="translate(249.951172 0)"/>
     <use xlink:href="#DejaVuSans-2e" transform="translate(311.474609 0)"/>
     <use xlink:href="#DejaVuSans-70" transform="translate(343.261719 0)"/>
     <use xlink:href="#DejaVuSans-6e" transform="translate(406.738281 0)"/>
     <use xlink:href="#DejaVuSans-67" transform="translate(470.117188 0)"/>
    </g>
   </g>
   <g id="text_4">
    <!-- wget image.png -->
    <g transform="translate(100.785906 17.979611) scale(0.14 -0.14)">
     <defs>
      <path id="DejaVuSans-77" d="M 269 3500 
L 844 3500 
L 1563 769 
L 2278 3500 
L 2956 3500 
L 3675 769 
L 4391 3500 
L 4966 3500 
L 4050 0 
L 3372 0 
L 2619 2869 
L 1863 0 
L 1184 0 
L 269 3500 
z
" transform="scale(0.015625)"/>
     </defs>
     <use xlink:href="#DejaVuSans-77"/>
     <use xlink:href="#DejaVuSans-67" transform="translate(81.787109 0)"/>
     <use xlink:href="#DejaVuSans-65" transform="translate(145.263672 0)"/>
     <use xlink:href="#DejaVuSans-74" transform="translate(206.787109 0)"/>
     <use xlink:href="#DejaVuSans-20" transform="translate(245.996094 0)"/>
     <use xlink:href="#DejaVuSans-69" transform="translate(277.783203 0)"/>
     <use xlink:href="#DejaVuSans-6d" transform="translate(305.566406 0)"/>
     <use xlink:href="#DejaVuSans-61" transform="translate(402.978516 0)"/>
     <use xlink:href="#DejaVuSans-67" transform="translate(464.257812 0)"/>
     <use xlink:href="#DejaVuSans-65" transform="translate(527.734375 0)"/>
     <use xlink:href="#DejaVuSans-2e" transform="translate(589.257812 0)"/>
     <use xlink:href="#DejaVuSans-70" transform="translate(621.044922 0)"/>
     <use xlink:href="#DejaVuSans-6e" transform="translate(684.521484 0)"/>
     <use xlink:href="#DejaVuSans-67" transform="translate(747.900391 0)"/>
    </g>
   </g>
  </g>
 </g>
 <defs>
  <clipPath id="pdea3995579">
   <rect x="0" y="0" width="303.2955" height="120.4245"/>
  </clipPath>
 </defs>
</svg>
