<?xml version="1.0" encoding="utf-8" standalone="no"?>
<!DOCTYPE svg PUBLIC "-//W3C//DTD SVG 1.1//EN"
  "http://www.w3.org/Graphics/SVG/1.1/DTD/svg11.dtd">
<svg xmlns:xlink="http://www.w3.org/1999/xlink" width="635.121pt" height="274.86pt" viewBox="0 0 635.121 274.86" xmlns="http://www.w3.org/2000/svg" version="1.1">
 <metadata>
  <rdf:RDF xmlns:dc="http://purl.org/dc/elements/1.1/" xmlns:cc="http://creativecommons.org/ns#" xmlns:rdf="http://www.w3.org/1999/02/22-rdf-syntax-ns#">
   <cc:Work>
    <dc:type rdf:resource="http://purl.org/dc/dcmitype/StillImage"/>
    <dc:date>2025-03-02T18:50:17.500298</dc:date>
    <dc:format>image/svg+xml</dc:format>
    <dc:creator>
     <cc:Agent>
      <dc:title>Matplotlib v3.10.1, https://matplotlib.org/</dc:title>
     </cc:Agent>
    </dc:creator>
   </cc:Work>
  </rdf:RDF>
 </metadata>
 <defs>
  <style type="text/css">*{stroke-linejoin: round; stroke-linecap: butt}</style>
 </defs>
 <g id="figure_1">
  <g id="patch_1">
   <path d="M 0 274.86 
L 635.121 274.86 
L 635.121 0 
L 0 0 
L 0 274.86 
z
" style="fill: none"/>
  </g>
  <g id="axes_1">
   <g id="patch_2">
    <path d="M 132.102 49.68 
L 132.458984 49.677168 
L 132.815879 49.668672 
L 133.172593 49.654515 
L 133.529038 49.6347 
L 133.885124 49.609232 
L 134.240761 49.578118 
L 134.595859 49.541365 
L 134.95033 49.498983 
L 135.304084 49.450982 
L 135.657031 49.397375 
L 136.009084 49.338174 
L 136.360153 49.273396 
L 136.71015 49.203055 
L 137.058987 49.12717 
L 137.406576 49.04576 
L 137.75283 48.958846 
L 138.097661 48.866449 
L 138.440983 48.768592 
L 138.782708 48.6653 
L 139.122753 48.5566 
L 139.461029 48.442518 
L 139.797453 48.323084 
L 140.13194 48.198327 
L 140.464405 48.068278 
L 140.794765 47.932972 
L 141.122937 47.79244 
L 141.448838 47.64672 
L 141.772386 47.495847 
L 142.093499 47.33986 
L 142.412097 47.178798 
L 142.728099 47.012701 
L 143.041427 46.841611 
L 143.352 46.665572 
L 143.659741 46.484627 
L 143.964573 46.298822 
L 144.266418 46.108204 
L 144.565201 45.912822 
L 144.860847 45.712723 
L 145.15328 45.507959 
L 145.442428 45.298581 
L 145.728218 45.084641 
L 146.010577 44.866195 
L 146.289435 44.643295 
L 146.564721 44.416 
L 146.836367 44.184365 
L 147.104303 43.94845 
L 147.368462 43.708313 
L 147.628778 43.464016 
L 147.885185 43.215619 
L 148.137619 42.963185 
L 148.386016 42.706778 
L 148.630313 42.446462 
L 148.87045 42.182303 
L 149.106365 41.914367 
L 149.338 41.642721 
L 149.565295 41.367435 
L 149.788195 41.088577 
L 150.006641 40.806218 
L 150.220581 40.520428 
L 150.429959 40.23128 
L 150.634723 39.938847 
L 150.834822 39.643201 
L 151.030204 39.344418 
L 151.220822 39.042573 
L 151.406627 38.737741 
L 151.587572 38.43 
L 151.763611 38.119427 
L 151.934701 37.806099 
L 152.100798 37.490097 
L 152.26186 37.171499 
L 152.417847 36.850386 
L 152.56872 36.526838 
L 152.71444 36.200937 
L 152.854972 35.872765 
L 152.990278 35.542405 
L 153.120327 35.20994 
L 153.245084 34.875453 
L 153.364518 34.539029 
L 153.4786 34.200753 
L 153.5873 33.860708 
L 153.690592 33.518983 
L 153.788449 33.175661 
L 153.880846 32.83083 
L 153.96776 32.484576 
L 154.04917 32.136987 
L 154.125055 31.78815 
L 154.195396 31.438153 
L 154.260174 31.087084 
L 154.319375 30.735031 
L 154.372982 30.382084 
L 154.420983 30.02833 
L 154.463365 29.673859 
L 154.500118 29.318761 
L 154.531232 28.963124 
L 154.5567 28.607038 
L 154.576515 28.250593 
L 154.590672 27.893879 
L 154.599168 27.536984 
L 154.602 27.18 
L 154.602 27.18 
L 154.599168 26.823016 
L 154.590672 26.466121 
L 154.576515 26.109407 
L 154.5567 25.752962 
L 154.531232 25.396876 
L 154.500118 25.041239 
L 154.463365 24.686141 
L 154.420983 24.33167 
L 154.372982 23.977916 
L 154.319375 23.624969 
L 154.260174 23.272916 
L 154.195396 22.921847 
L 154.125055 22.57185 
L 154.04917 22.223013 
L 153.96776 21.875424 
L 153.880846 21.52917 
L 153.788449 21.184339 
L 153.690592 20.841017 
L 153.5873 20.499292 
L 153.4786 20.159247 
L 153.364518 19.820971 
L 153.245084 19.484547 
L 153.120327 19.15006 
L 152.990278 18.817595 
L 152.854972 18.487235 
L 152.71444 18.159063 
L 152.56872 17.833162 
L 152.417847 17.509614 
L 152.26186 17.188501 
L 152.100798 16.869903 
L 151.934701 16.553901 
L 151.763611 16.240573 
L 151.587572 15.93 
L 151.406627 15.622259 
L 151.220822 15.317427 
L 151.030204 15.015582 
L 150.834822 14.716799 
L 150.634723 14.421153 
L 150.429959 14.12872 
L 150.220581 13.839572 
L 150.006641 13.553782 
L 149.788195 13.271423 
L 149.565295 12.992565 
L 149.338 12.717279 
L 149.106365 12.445633 
L 148.87045 12.177697 
L 148.630313 11.913538 
L 148.386016 11.653222 
L 148.137619 11.396815 
L 147.885185 11.144381 
L 147.628778 10.895984 
L 147.368462 10.651687 
L 147.104303 10.41155 
L 146.836367 10.175635 
L 146.564721 9.944 
L 146.289435 9.716705 
L 146.010577 9.493805 
L 145.728218 9.275359 
L 145.442428 9.061419 
L 145.15328 8.852041 
L 144.860847 8.647277 
L 144.565201 8.447178 
L 144.266418 8.251796 
L 143.964573 8.061178 
L 143.659741 7.875373 
L 143.352 7.694428 
L 143.041427 7.518389 
L 142.728099 7.347299 
L 142.412097 7.181202 
L 142.093499 7.02014 
L 141.772386 6.864153 
L 141.448838 6.71328 
L 141.122937 6.56756 
L 140.794765 6.427028 
L 140.464405 6.291722 
L 140.13194 6.161673 
L 139.797453 6.036916 
L 139.461029 5.917482 
L 139.122753 5.8034 
L 138.782708 5.6947 
L 138.440983 5.591408 
L 138.097661 5.493551 
L 137.75283 5.401154 
L 137.406576 5.31424 
L 137.058987 5.23283 
L 136.71015 5.156945 
L 136.360153 5.086604 
L 136.009084 5.021826 
L 135.657031 4.962625 
L 135.304084 4.909018 
L 134.95033 4.861017 
L 134.595859 4.818635 
L 134.240761 4.781882 
L 133.885124 4.750768 
L 133.529038 4.7253 
L 133.172593 4.705485 
L 132.815879 4.691328 
L 132.458984 4.682832 
L 132.102 4.68 
L 27.18 4.68 
L 26.823016 4.682832 
L 26.466121 4.691328 
L 26.109407 4.705485 
L 25.752962 4.7253 
L 25.396876 4.750768 
L 25.041239 4.781882 
L 24.686141 4.818635 
L 24.33167 4.861017 
L 23.977916 4.909018 
L 23.624969 4.962625 
L 23.272916 5.021826 
L 22.921847 5.086604 
L 22.57185 5.156945 
L 22.223013 5.23283 
L 21.875424 5.31424 
L 21.52917 5.401154 
L 21.184339 5.493551 
L 20.841017 5.591408 
L 20.499292 5.6947 
L 20.159247 5.8034 
L 19.820971 5.917482 
L 19.484547 6.036916 
L 19.15006 6.161673 
L 18.817595 6.291722 
L 18.487235 6.427028 
L 18.159063 6.56756 
L 17.833162 6.71328 
L 17.509614 6.864153 
L 17.188501 7.02014 
L 16.869903 7.181202 
L 16.553901 7.347299 
L 16.240573 7.518389 
L 15.93 7.694428 
L 15.622259 7.875373 
L 15.317427 8.061178 
L 15.015582 8.251796 
L 14.716799 8.447178 
L 14.421153 8.647277 
L 14.12872 8.852041 
L 13.839572 9.061419 
L 13.553782 9.275359 
L 13.271423 9.493805 
L 12.992565 9.716705 
L 12.717279 9.944 
L 12.445633 10.175635 
L 12.177697 10.41155 
L 11.913538 10.651687 
L 11.653222 10.895984 
L 11.396815 11.144381 
L 11.144381 11.396815 
L 10.895984 11.653222 
L 10.651687 11.913538 
L 10.41155 12.177697 
L 10.175635 12.445633 
L 9.944 12.717279 
L 9.716705 12.992565 
L 9.493805 13.271423 
L 9.275359 13.553782 
L 9.061419 13.839572 
L 8.852041 14.12872 
L 8.647277 14.421153 
L 8.447178 14.716799 
L 8.251796 15.015582 
L 8.061178 15.317427 
L 7.875373 15.622259 
L 7.694428 15.93 
L 7.518389 16.240573 
L 7.347299 16.553901 
L 7.181202 16.869903 
L 7.02014 17.188501 
L 6.864153 17.509614 
L 6.71328 17.833162 
L 6.56756 18.159063 
L 6.427028 18.487235 
L 6.291722 18.817595 
L 6.161673 19.15006 
L 6.036916 19.484547 
L 5.917482 19.820971 
L 5.8034 20.159247 
L 5.6947 20.499292 
L 5.591408 20.841017 
L 5.493551 21.184339 
L 5.401154 21.52917 
L 5.31424 21.875424 
L 5.23283 22.223013 
L 5.156945 22.57185 
L 5.086604 22.921847 
L 5.021826 23.272916 
L 4.962625 23.624969 
L 4.909018 23.977916 
L 4.861017 24.33167 
L 4.818635 24.686141 
L 4.781882 25.041239 
L 4.750768 25.396876 
L 4.7253 25.752962 
L 4.705485 26.109407 
L 4.691328 26.466121 
L 4.682832 26.823016 
L 4.68 27.18 
L 4.68 27.18 
L 4.682832 27.536984 
L 4.691328 27.893879 
L 4.705485 28.250593 
L 4.7253 28.607038 
L 4.750768 28.963124 
L 4.781882 29.318761 
L 4.818635 29.673859 
L 4.861017 30.02833 
L 4.909018 30.382084 
L 4.962625 30.735031 
L 5.021826 31.087084 
L 5.086604 31.438153 
L 5.156945 31.78815 
L 5.23283 32.136987 
L 5.31424 32.484576 
L 5.401154 32.83083 
L 5.493551 33.175661 
L 5.591408 33.518983 
L 5.6947 33.860708 
L 5.8034 34.200753 
L 5.917482 34.539029 
L 6.036916 34.875453 
L 6.161673 35.20994 
L 6.291722 35.542405 
L 6.427028 35.872765 
L 6.56756 36.200937 
L 6.71328 36.526838 
L 6.864153 36.850386 
L 7.02014 37.171499 
L 7.181202 37.490097 
L 7.347299 37.806099 
L 7.518389 38.119427 
L 7.694428 38.43 
L 7.875373 38.737741 
L 8.061178 39.042573 
L 8.251796 39.344418 
L 8.447178 39.643201 
L 8.647277 39.938847 
L 8.852041 40.23128 
L 9.061419 40.520428 
L 9.275359 40.806218 
L 9.493805 41.088577 
L 9.716705 41.367435 
L 9.944 41.642721 
L 10.175635 41.914367 
L 10.41155 42.182303 
L 10.651687 42.446462 
L 10.895984 42.706778 
L 11.144381 42.963185 
L 11.396815 43.215619 
L 11.653222 43.464016 
L 11.913538 43.708313 
L 12.177697 43.94845 
L 12.445633 44.184365 
L 12.717279 44.416 
L 12.992565 44.643295 
L 13.271423 44.866195 
L 13.553782 45.084641 
L 13.839572 45.298581 
L 14.12872 45.507959 
L 14.421153 45.712723 
L 14.716799 45.912822 
L 15.015582 46.108204 
L 15.317427 46.298822 
L 15.622259 46.484627 
L 15.93 46.665572 
L 16.240573 46.841611 
L 16.553901 47.012701 
L 16.869903 47.178798 
L 17.188501 47.33986 
L 17.509614 47.495847 
L 17.833162 47.64672 
L 18.159063 47.79244 
L 18.487235 47.932972 
L 18.817595 48.068278 
L 19.15006 48.198327 
L 19.484547 48.323084 
L 19.820971 48.442518 
L 20.159247 48.5566 
L 20.499292 48.6653 
L 20.841017 48.768592 
L 21.184339 48.866449 
L 21.52917 48.958846 
L 21.875424 49.04576 
L 22.223013 49.12717 
L 22.57185 49.203055 
L 22.921847 49.273396 
L 23.272916 49.338174 
L 23.624969 49.397375 
L 23.977916 49.450982 
L 24.33167 49.498983 
L 24.686141 49.541365 
L 25.041239 49.578118 
L 25.396876 49.609232 
L 25.752962 49.6347 
L 26.109407 49.654515 
L 26.466121 49.668672 
L 26.823016 49.677168 
L 27.18 49.68 
L 132.102 49.68 
z
" clip-path="url(#pe57781407b)" style="fill: none; stroke: #000000; stroke-width: 2; stroke-linecap: round"/>
   </g>
   <g id="patch_3">
    <path d="M 279.0765 121.68 
L 279.433484 121.677168 
L 279.790379 121.668672 
L 280.147093 121.654515 
L 280.503538 121.6347 
L 280.859624 121.609232 
L 281.215261 121.578118 
L 281.570359 121.541365 
L 281.92483 121.498983 
L 282.278584 121.450982 
L 282.631531 121.397375 
L 282.983584 121.338174 
L 283.334653 121.273396 
L 283.68465 121.203055 
L 284.033487 121.12717 
L 284.381076 121.04576 
L 284.72733 120.958846 
L 285.072161 120.866449 
L 285.415483 120.768592 
L 285.757208 120.6653 
L 286.097253 120.5566 
L 286.435529 120.442518 
L 286.771953 120.323084 
L 287.10644 120.198327 
L 287.438905 120.068278 
L 287.769265 119.932972 
L 288.097437 119.79244 
L 288.423338 119.64672 
L 288.746886 119.495847 
L 289.067999 119.33986 
L 289.386597 119.178798 
L 289.702599 119.012701 
L 290.015927 118.841611 
L 290.3265 118.665572 
L 290.634241 118.484627 
L 290.939073 118.298822 
L 291.240918 118.108204 
L 291.539701 117.912822 
L 291.835347 117.712723 
L 292.12778 117.507959 
L 292.416928 117.298581 
L 292.702718 117.084641 
L 292.985077 116.866195 
L 293.263935 116.643295 
L 293.539221 116.416 
L 293.810867 116.184365 
L 294.078803 115.94845 
L 294.342962 115.708313 
L 294.603278 115.464016 
L 294.859685 115.215619 
L 295.112119 114.963185 
L 295.360516 114.706778 
L 295.604813 114.446462 
L 295.84495 114.182303 
L 296.080865 113.914367 
L 296.3125 113.642721 
L 296.539795 113.367435 
L 296.762695 113.088577 
L 296.981141 112.806218 
L 297.195081 112.520428 
L 297.404459 112.23128 
L 297.609223 111.938847 
L 297.809322 111.643201 
L 298.004704 111.344418 
L 298.195322 111.042573 
L 298.381127 110.737741 
L 298.562072 110.43 
L 298.738111 110.119427 
L 298.909201 109.806099 
L 299.075298 109.490097 
L 299.23636 109.171499 
L 299.392347 108.850386 
L 299.54322 108.526838 
L 299.68894 108.200937 
L 299.829472 107.872765 
L 299.964778 107.542405 
L 300.094827 107.20994 
L 300.219584 106.875453 
L 300.339018 106.539029 
L 300.4531 106.200753 
L 300.5618 105.860708 
L 300.665092 105.518983 
L 300.762949 105.175661 
L 300.855346 104.83083 
L 300.94226 104.484576 
L 301.02367 104.136987 
L 301.099555 103.78815 
L 301.169896 103.438153 
L 301.234674 103.087084 
L 301.293875 102.735031 
L 301.347482 102.382084 
L 301.395483 102.02833 
L 301.437865 101.673859 
L 301.474618 101.318761 
L 301.505732 100.963124 
L 301.5312 100.607038 
L 301.551015 100.250593 
L 301.565172 99.893879 
L 301.573668 99.536984 
L 301.5765 99.18 
L 301.5765 99.18 
L 301.573668 98.823016 
L 301.565172 98.466121 
L 301.551015 98.109407 
L 301.5312 97.752962 
L 301.505732 97.396876 
L 301.474618 97.041239 
L 301.437865 96.686141 
L 301.395483 96.33167 
L 301.347482 95.977916 
L 301.293875 95.624969 
L 301.234674 95.272916 
L 301.169896 94.921847 
L 301.099555 94.57185 
L 301.02367 94.223013 
L 300.94226 93.875424 
L 300.855346 93.52917 
L 300.762949 93.184339 
L 300.665092 92.841017 
L 300.5618 92.499292 
L 300.4531 92.159247 
L 300.339018 91.820971 
L 300.219584 91.484547 
L 300.094827 91.15006 
L 299.964778 90.817595 
L 299.829472 90.487235 
L 299.68894 90.159063 
L 299.54322 89.833162 
L 299.392347 89.509614 
L 299.23636 89.188501 
L 299.075298 88.869903 
L 298.909201 88.553901 
L 298.738111 88.240573 
L 298.562072 87.93 
L 298.381127 87.622259 
L 298.195322 87.317427 
L 298.004704 87.015582 
L 297.809322 86.716799 
L 297.609223 86.421153 
L 297.404459 86.12872 
L 297.195081 85.839572 
L 296.981141 85.553782 
L 296.762695 85.271423 
L 296.539795 84.992565 
L 296.3125 84.717279 
L 296.080865 84.445633 
L 295.84495 84.177697 
L 295.604813 83.913538 
L 295.360516 83.653222 
L 295.112119 83.396815 
L 294.859685 83.144381 
L 294.603278 82.895984 
L 294.342962 82.651687 
L 294.078803 82.41155 
L 293.810867 82.175635 
L 293.539221 81.944 
L 293.263935 81.716705 
L 292.985077 81.493805 
L 292.702718 81.275359 
L 292.416928 81.061419 
L 292.12778 80.852041 
L 291.835347 80.647277 
L 291.539701 80.447178 
L 291.240918 80.251796 
L 290.939073 80.061178 
L 290.634241 79.875373 
L 290.3265 79.694428 
L 290.015927 79.518389 
L 289.702599 79.347299 
L 289.386597 79.181202 
L 289.067999 79.02014 
L 288.746886 78.864153 
L 288.423338 78.71328 
L 288.097437 78.56756 
L 287.769265 78.427028 
L 287.438905 78.291722 
L 287.10644 78.161673 
L 286.771953 78.036916 
L 286.435529 77.917482 
L 286.097253 77.8034 
L 285.757208 77.6947 
L 285.415483 77.591408 
L 285.072161 77.493551 
L 284.72733 77.401154 
L 284.381076 77.31424 
L 284.033487 77.23283 
L 283.68465 77.156945 
L 283.334653 77.086604 
L 282.983584 77.021826 
L 282.631531 76.962625 
L 282.278584 76.909018 
L 281.92483 76.861017 
L 281.570359 76.818635 
L 281.215261 76.781882 
L 280.859624 76.750768 
L 280.503538 76.7253 
L 280.147093 76.705485 
L 279.790379 76.691328 
L 279.433484 76.682832 
L 279.0765 76.68 
L 204.2055 76.68 
L 203.848516 76.682832 
L 203.491621 76.691328 
L 203.134907 76.705485 
L 202.778462 76.7253 
L 202.422376 76.750768 
L 202.066739 76.781882 
L 201.711641 76.818635 
L 201.35717 76.861017 
L 201.003416 76.909018 
L 200.650469 76.962625 
L 200.298416 77.021826 
L 199.947347 77.086604 
L 199.59735 77.156945 
L 199.248513 77.23283 
L 198.900924 77.31424 
L 198.55467 77.401154 
L 198.209839 77.493551 
L 197.866517 77.591408 
L 197.524792 77.6947 
L 197.184747 77.8034 
L 196.846471 77.917482 
L 196.510047 78.036916 
L 196.17556 78.161673 
L 195.843095 78.291722 
L 195.512735 78.427028 
L 195.184563 78.56756 
L 194.858662 78.71328 
L 194.535114 78.864153 
L 194.214001 79.02014 
L 193.895403 79.181202 
L 193.579401 79.347299 
L 193.266073 79.518389 
L 192.9555 79.694428 
L 192.647759 79.875373 
L 192.342927 80.061178 
L 192.041082 80.251796 
L 191.742299 80.447178 
L 191.446653 80.647277 
L 191.15422 80.852041 
L 190.865072 81.061419 
L 190.579282 81.275359 
L 190.296923 81.493805 
L 190.018065 81.716705 
L 189.742779 81.944 
L 189.471133 82.175635 
L 189.203197 82.41155 
L 188.939038 82.651687 
L 188.678722 82.895984 
L 188.422315 83.144381 
L 188.169881 83.396815 
L 187.921484 83.653222 
L 187.677187 83.913538 
L 187.43705 84.177697 
L 187.201135 84.445633 
L 186.9695 84.717279 
L 186.742205 84.992565 
L 186.519305 85.271423 
L 186.300859 85.553782 
L 186.086919 85.839572 
L 185.877541 86.12872 
L 185.672777 86.421153 
L 185.472678 86.716799 
L 185.277296 87.015582 
L 185.086678 87.317427 
L 184.900873 87.622259 
L 184.719928 87.93 
L 184.543889 88.240573 
L 184.372799 88.553901 
L 184.206702 88.869903 
L 184.04564 89.188501 
L 183.889653 89.509614 
L 183.73878 89.833162 
L 183.59306 90.159063 
L 183.452528 90.487235 
L 183.317222 90.817595 
L 183.187173 91.15006 
L 183.062416 91.484547 
L 182.942982 91.820971 
L 182.8289 92.159247 
L 182.7202 92.499292 
L 182.616908 92.841017 
L 182.519051 93.184339 
L 182.426654 93.52917 
L 182.33974 93.875424 
L 182.25833 94.223013 
L 182.182445 94.57185 
L 182.112104 94.921847 
L 182.047326 95.272916 
L 181.988125 95.624969 
L 181.934518 95.977916 
L 181.886517 96.33167 
L 181.844135 96.686141 
L 181.807382 97.041239 
L 181.776268 97.396876 
L 181.7508 97.752962 
L 181.730985 98.109407 
L 181.716828 98.466121 
L 181.708332 98.823016 
L 181.7055 99.18 
L 181.7055 99.18 
L 181.708332 99.536984 
L 181.716828 99.893879 
L 181.730985 100.250593 
L 181.7508 100.607038 
L 181.776268 100.963124 
L 181.807382 101.318761 
L 181.844135 101.673859 
L 181.886517 102.02833 
L 181.934518 102.382084 
L 181.988125 102.735031 
L 182.047326 103.087084 
L 182.112104 103.438153 
L 182.182445 103.78815 
L 182.25833 104.136987 
L 182.33974 104.484576 
L 182.426654 104.83083 
L 182.519051 105.175661 
L 182.616908 105.518983 
L 182.7202 105.860708 
L 182.8289 106.200753 
L 182.942982 106.539029 
L 183.062416 106.875453 
L 183.187173 107.20994 
L 183.317222 107.542405 
L 183.452528 107.872765 
L 183.59306 108.200937 
L 183.73878 108.526838 
L 183.889653 108.850386 
L 184.04564 109.171499 
L 184.206702 109.490097 
L 184.372799 109.806099 
L 184.543889 110.119427 
L 184.719928 110.43 
L 184.900873 110.737741 
L 185.086678 111.042573 
L 185.277296 111.344418 
L 185.472678 111.643201 
L 185.672777 111.938847 
L 185.877541 112.23128 
L 186.086919 112.520428 
L 186.300859 112.806218 
L 186.519305 113.088577 
L 186.742205 113.367435 
L 186.9695 113.642721 
L 187.201135 113.914367 
L 187.43705 114.182303 
L 187.677187 114.446462 
L 187.921484 114.706778 
L 188.169881 114.963185 
L 188.422315 115.215619 
L 188.678722 115.464016 
L 188.939038 115.708313 
L 189.203197 115.94845 
L 189.471133 116.184365 
L 189.742779 116.416 
L 190.018065 116.643295 
L 190.296923 116.866195 
L 190.579282 117.084641 
L 190.865072 117.298581 
L 191.15422 117.507959 
L 191.446653 117.712723 
L 191.742299 117.912822 
L 192.041082 118.108204 
L 192.342927 118.298822 
L 192.647759 118.484627 
L 192.9555 118.665572 
L 193.266073 118.841611 
L 193.579401 119.012701 
L 193.895403 119.178798 
L 194.214001 119.33986 
L 194.535114 119.495847 
L 194.858662 119.64672 
L 195.184563 119.79244 
L 195.512735 119.932972 
L 195.843095 120.068278 
L 196.17556 120.198327 
L 196.510047 120.323084 
L 196.846471 120.442518 
L 197.184747 120.5566 
L 197.524792 120.6653 
L 197.866517 120.768592 
L 198.209839 120.866449 
L 198.55467 120.958846 
L 198.900924 121.04576 
L 199.248513 121.12717 
L 199.59735 121.203055 
L 199.947347 121.273396 
L 200.298416 121.338174 
L 200.650469 121.397375 
L 201.003416 121.450982 
L 201.35717 121.498983 
L 201.711641 121.541365 
L 202.066739 121.578118 
L 202.422376 121.609232 
L 202.778462 121.6347 
L 203.134907 121.654515 
L 203.491621 121.668672 
L 203.848516 121.677168 
L 204.2055 121.68 
L 279.0765 121.68 
z
" clip-path="url(#pe57781407b)" style="fill: none; stroke: #000000; stroke-width: 2; stroke-linecap: round"/>
   </g>
   <g id="patch_4">
    <path d="M 133.641 232.39125 
C 144.862075 232.39125 155.625074 227.93307 163.559572 219.998572 
C 171.49407 212.064074 175.95225 201.301075 175.95225 190.08 
C 175.95225 178.858925 171.49407 168.095926 163.559572 160.161428 
C 155.625074 152.22693 144.862075 147.76875 133.641 147.76875 
C 122.419925 147.76875 111.656926 152.22693 103.722428 160.161428 
C 95.78793 168.095926 91.32975 178.858925 91.32975 190.08 
C 91.32975 201.301075 95.78793 212.064074 103.722428 219.998572 
C 111.656926 227.93307 122.419925 232.39125 133.641 232.39125 
L 133.641 232.39125 
z
" clip-path="url(#pe57781407b)" style="fill: none; stroke: #000000; stroke-width: 2; stroke-linejoin: miter"/>
   </g>
   <g id="patch_5">
    <path d="M 138.141 163.08 
C 174.631948 163.08 147.304649 115.089903 183.795597 115.089903 
" clip-path="url(#pe57781407b)" style="fill: none; stroke: #000000; stroke-width: 2; stroke-linejoin: miter; stroke-linecap: round"/>
   </g>
   <g id="patch_6">
    <path d="M 142.641 166.68 
L 133.641 163.08 
L 142.641 159.48 
z
" clip-path="url(#pe57781407b)"/>
   </g>
   <g id="patch_7">
    <path d="M 179.295597 111.489903 
L 188.295597 115.089903 
L 179.295597 118.689903 
z
" clip-path="url(#pe57781407b)"/>
   </g>
   <g id="patch_8">
    <path d="M 148.011903 43.089903 
Q 188.243847 43.038153 188.289809 78.770101 
" clip-path="url(#pe57781407b)" style="fill: none; stroke: #000000; stroke-width: 2; stroke-linejoin: miter; stroke-linecap: round"/>
   </g>
   <g id="patch_9">
    <path d="M 190.984019 74.266632 
L 188.295597 83.270097 
L 185.584023 74.273578 
z
" clip-path="url(#pe57781407b)"/>
   </g>
   <g id="patch_10">
    <path d="M 188.295597 83.270097 
Q 148.063653 83.321847 148.017691 47.589899 
" clip-path="url(#pe57781407b)" style="fill: none; stroke: #000000; stroke-width: 2; stroke-linejoin: miter; stroke-linecap: round"/>
   </g>
   <g id="patch_11">
    <path d="M 145.323481 52.093368 
L 148.011903 43.089903 
L 150.723477 52.086422 
z
" clip-path="url(#pe57781407b)"/>
   </g>
   <g id="patch_12">
    <path d="M 489.141 193.68 
L 489.497984 193.677168 
L 489.854879 193.668672 
L 490.211593 193.654515 
L 490.568038 193.6347 
L 490.924124 193.609232 
L 491.279761 193.578118 
L 491.634859 193.541365 
L 491.98933 193.498983 
L 492.343084 193.450982 
L 492.696031 193.397375 
L 493.048084 193.338174 
L 493.399153 193.273396 
L 493.74915 193.203055 
L 494.097987 193.12717 
L 494.445576 193.04576 
L 494.79183 192.958846 
L 495.136661 192.866449 
L 495.479983 192.768592 
L 495.821708 192.6653 
L 496.161753 192.5566 
L 496.500029 192.442518 
L 496.836453 192.323084 
L 497.17094 192.198327 
L 497.503405 192.068278 
L 497.833765 191.932972 
L 498.161937 191.79244 
L 498.487838 191.64672 
L 498.811386 191.495847 
L 499.132499 191.33986 
L 499.451097 191.178798 
L 499.767099 191.012701 
L 500.080427 190.841611 
L 500.391 190.665572 
L 500.698741 190.484627 
L 501.003573 190.298822 
L 501.305418 190.108204 
L 501.604201 189.912822 
L 501.899847 189.712723 
L 502.19228 189.507959 
L 502.481428 189.298581 
L 502.767218 189.084641 
L 503.049577 188.866195 
L 503.328435 188.643295 
L 503.603721 188.416 
L 503.875367 188.184365 
L 504.143303 187.94845 
L 504.407462 187.708313 
L 504.667778 187.464016 
L 504.924185 187.215619 
L 505.176619 186.963185 
L 505.425016 186.706778 
L 505.669313 186.446462 
L 505.90945 186.182303 
L 506.145365 185.914367 
L 506.377 185.642721 
L 506.604295 185.367435 
L 506.827195 185.088577 
L 507.045641 184.806218 
L 507.259581 184.520428 
L 507.468959 184.23128 
L 507.673723 183.938847 
L 507.873822 183.643201 
L 508.069204 183.344418 
L 508.259822 183.042573 
L 508.445627 182.737741 
L 508.626572 182.43 
L 508.802611 182.119427 
L 508.973701 181.806099 
L 509.139798 181.490097 
L 509.30086 181.171499 
L 509.456847 180.850386 
L 509.60772 180.526838 
L 509.75344 180.200937 
L 509.893972 179.872765 
L 510.029278 179.542405 
L 510.159327 179.20994 
L 510.284084 178.875453 
L 510.403518 178.539029 
L 510.5176 178.200753 
L 510.6263 177.860708 
L 510.729592 177.518983 
L 510.827449 177.175661 
L 510.919846 176.83083 
L 511.00676 176.484576 
L 511.08817 176.136987 
L 511.164055 175.78815 
L 511.234396 175.438153 
L 511.299174 175.087084 
L 511.358375 174.735031 
L 511.411982 174.382084 
L 511.459983 174.02833 
L 511.502365 173.673859 
L 511.539118 173.318761 
L 511.570232 172.963124 
L 511.5957 172.607038 
L 511.615515 172.250593 
L 511.629672 171.893879 
L 511.638168 171.536984 
L 511.641 171.18 
L 511.641 171.18 
L 511.638168 170.823016 
L 511.629672 170.466121 
L 511.615515 170.109407 
L 511.5957 169.752962 
L 511.570232 169.396876 
L 511.539118 169.041239 
L 511.502365 168.686141 
L 511.459983 168.33167 
L 511.411982 167.977916 
L 511.358375 167.624969 
L 511.299174 167.272916 
L 511.234396 166.921847 
L 511.164055 166.57185 
L 511.08817 166.223013 
L 511.00676 165.875424 
L 510.919846 165.52917 
L 510.827449 165.184339 
L 510.729592 164.841017 
L 510.6263 164.499292 
L 510.5176 164.159247 
L 510.403518 163.820971 
L 510.284084 163.484547 
L 510.159327 163.15006 
L 510.029278 162.817595 
L 509.893972 162.487235 
L 509.75344 162.159063 
L 509.60772 161.833162 
L 509.456847 161.509614 
L 509.30086 161.188501 
L 509.139798 160.869903 
L 508.973701 160.553901 
L 508.802611 160.240573 
L 508.626572 159.93 
L 508.445627 159.622259 
L 508.259822 159.317427 
L 508.069204 159.015582 
L 507.873822 158.716799 
L 507.673723 158.421153 
L 507.468959 158.12872 
L 507.259581 157.839572 
L 507.045641 157.553782 
L 506.827195 157.271423 
L 506.604295 156.992565 
L 506.377 156.717279 
L 506.145365 156.445633 
L 505.90945 156.177697 
L 505.669313 155.913538 
L 505.425016 155.653222 
L 505.176619 155.396815 
L 504.924185 155.144381 
L 504.667778 154.895984 
L 504.407462 154.651687 
L 504.143303 154.41155 
L 503.875367 154.175635 
L 503.603721 153.944 
L 503.328435 153.716705 
L 503.049577 153.493805 
L 502.767218 153.275359 
L 502.481428 153.061419 
L 502.19228 152.852041 
L 501.899847 152.647277 
L 501.604201 152.447178 
L 501.305418 152.251796 
L 501.003573 152.061178 
L 500.698741 151.875373 
L 500.391 151.694428 
L 500.080427 151.518389 
L 499.767099 151.347299 
L 499.451097 151.181202 
L 499.132499 151.02014 
L 498.811386 150.864153 
L 498.487838 150.71328 
L 498.161937 150.56756 
L 497.833765 150.427028 
L 497.503405 150.291722 
L 497.17094 150.161673 
L 496.836453 150.036916 
L 496.500029 149.917482 
L 496.161753 149.8034 
L 495.821708 149.6947 
L 495.479983 149.591408 
L 495.136661 149.493551 
L 494.79183 149.401154 
L 494.445576 149.31424 
L 494.097987 149.23283 
L 493.74915 149.156945 
L 493.399153 149.086604 
L 493.048084 149.021826 
L 492.696031 148.962625 
L 492.343084 148.909018 
L 491.98933 148.861017 
L 491.634859 148.818635 
L 491.279761 148.781882 
L 490.924124 148.750768 
L 490.568038 148.7253 
L 490.211593 148.705485 
L 489.854879 148.691328 
L 489.497984 148.682832 
L 489.141 148.68 
L 426.141 148.68 
L 425.784016 148.682832 
L 425.427121 148.691328 
L 425.070407 148.705485 
L 424.713962 148.7253 
L 424.357876 148.750768 
L 424.002239 148.781882 
L 423.647141 148.818635 
L 423.29267 148.861017 
L 422.938916 148.909018 
L 422.585969 148.962625 
L 422.233916 149.021826 
L 421.882847 149.086604 
L 421.53285 149.156945 
L 421.184013 149.23283 
L 420.836424 149.31424 
L 420.49017 149.401154 
L 420.145339 149.493551 
L 419.802017 149.591408 
L 419.460292 149.6947 
L 419.120247 149.8034 
L 418.781971 149.917482 
L 418.445547 150.036916 
L 418.11106 150.161673 
L 417.778595 150.291722 
L 417.448235 150.427028 
L 417.120063 150.56756 
L 416.794162 150.71328 
L 416.470614 150.864153 
L 416.149501 151.02014 
L 415.830903 151.181202 
L 415.514901 151.347299 
L 415.201573 151.518389 
L 414.891 151.694428 
L 414.583259 151.875373 
L 414.278427 152.061178 
L 413.976582 152.251796 
L 413.677799 152.447178 
L 413.382153 152.647277 
L 413.08972 152.852041 
L 412.800572 153.061419 
L 412.514782 153.275359 
L 412.232423 153.493805 
L 411.953565 153.716705 
L 411.678279 153.944 
L 411.406633 154.175635 
L 411.138697 154.41155 
L 410.874538 154.651687 
L 410.614222 154.895984 
L 410.357815 155.144381 
L 410.105381 155.396815 
L 409.856984 155.653222 
L 409.612687 155.913538 
L 409.37255 156.177697 
L 409.136635 156.445633 
L 408.905 156.717279 
L 408.677705 156.992565 
L 408.454805 157.271423 
L 408.236359 157.553782 
L 408.022419 157.839572 
L 407.813041 158.12872 
L 407.608277 158.421153 
L 407.408178 158.716799 
L 407.212796 159.015582 
L 407.022178 159.317427 
L 406.836373 159.622259 
L 406.655428 159.93 
L 406.479389 160.240573 
L 406.308299 160.553901 
L 406.142202 160.869903 
L 405.98114 161.188501 
L 405.825153 161.509614 
L 405.67428 161.833162 
L 405.52856 162.159063 
L 405.388028 162.487235 
L 405.252722 162.817595 
L 405.122673 163.15006 
L 404.997916 163.484547 
L 404.878482 163.820971 
L 404.7644 164.159247 
L 404.6557 164.499292 
L 404.552408 164.841017 
L 404.454551 165.184339 
L 404.362154 165.52917 
L 404.27524 165.875424 
L 404.19383 166.223013 
L 404.117945 166.57185 
L 404.047604 166.921847 
L 403.982826 167.272916 
L 403.923625 167.624969 
L 403.870018 167.977916 
L 403.822017 168.33167 
L 403.779635 168.686141 
L 403.742882 169.041239 
L 403.711768 169.396876 
L 403.6863 169.752962 
L 403.666485 170.109407 
L 403.652328 170.466121 
L 403.643832 170.823016 
L 403.641 171.18 
L 403.641 171.18 
L 403.643832 171.536984 
L 403.652328 171.893879 
L 403.666485 172.250593 
L 403.6863 172.607038 
L 403.711768 172.963124 
L 403.742882 173.318761 
L 403.779635 173.673859 
L 403.822017 174.02833 
L 403.870018 174.382084 
L 403.923625 174.735031 
L 403.982826 175.087084 
L 404.047604 175.438153 
L 404.117945 175.78815 
L 404.19383 176.136987 
L 404.27524 176.484576 
L 404.362154 176.83083 
L 404.454551 177.175661 
L 404.552408 177.518983 
L 404.6557 177.860708 
L 404.7644 178.200753 
L 404.878482 178.539029 
L 404.997916 178.875453 
L 405.122673 179.20994 
L 405.252722 179.542405 
L 405.388028 179.872765 
L 405.52856 180.200937 
L 405.67428 180.526838 
L 405.825153 180.850386 
L 405.98114 181.171499 
L 406.142202 181.490097 
L 406.308299 181.806099 
L 406.479389 182.119427 
L 406.655428 182.43 
L 406.836373 182.737741 
L 407.022178 183.042573 
L 407.212796 183.344418 
L 407.408178 183.643201 
L 407.608277 183.938847 
L 407.813041 184.23128 
L 408.022419 184.520428 
L 408.236359 184.806218 
L 408.454805 185.088577 
L 408.677705 185.367435 
L 408.905 185.642721 
L 409.136635 185.914367 
L 409.37255 186.182303 
L 409.612687 186.446462 
L 409.856984 186.706778 
L 410.105381 186.963185 
L 410.357815 187.215619 
L 410.614222 187.464016 
L 410.874538 187.708313 
L 411.138697 187.94845 
L 411.406633 188.184365 
L 411.678279 188.416 
L 411.953565 188.643295 
L 412.232423 188.866195 
L 412.514782 189.084641 
L 412.800572 189.298581 
L 413.08972 189.507959 
L 413.382153 189.712723 
L 413.677799 189.912822 
L 413.976582 190.108204 
L 414.278427 190.298822 
L 414.583259 190.484627 
L 414.891 190.665572 
L 415.201573 190.841611 
L 415.514901 191.012701 
L 415.830903 191.178798 
L 416.149501 191.33986 
L 416.470614 191.495847 
L 416.794162 191.64672 
L 417.120063 191.79244 
L 417.448235 191.932972 
L 417.778595 192.068278 
L 418.11106 192.198327 
L 418.445547 192.323084 
L 418.781971 192.442518 
L 419.120247 192.5566 
L 419.460292 192.6653 
L 419.802017 192.768592 
L 420.145339 192.866449 
L 420.49017 192.958846 
L 420.836424 193.04576 
L 421.184013 193.12717 
L 421.53285 193.203055 
L 421.882847 193.273396 
L 422.233916 193.338174 
L 422.585969 193.397375 
L 422.938916 193.450982 
L 423.29267 193.498983 
L 423.647141 193.541365 
L 424.002239 193.578118 
L 424.357876 193.609232 
L 424.713962 193.6347 
L 425.070407 193.654515 
L 425.427121 193.668672 
L 425.784016 193.677168 
L 426.141 193.68 
L 489.141 193.68 
z
" clip-path="url(#pe57781407b)" style="fill: none; stroke: #000000; stroke-width: 2; stroke-linecap: round"/>
   </g>
   <g id="patch_13">
    <path d="M 605.691 198.18 
L 606.083683 198.176885 
L 606.476266 198.167539 
L 606.868652 198.151967 
L 607.260742 198.13017 
L 607.652436 198.102156 
L 608.043637 198.06793 
L 608.434245 198.027502 
L 608.824163 197.980882 
L 609.213292 197.928081 
L 609.601535 197.869112 
L 609.988792 197.803992 
L 610.374968 197.732735 
L 610.759965 197.655361 
L 611.143686 197.571887 
L 611.526034 197.482336 
L 611.906913 197.38673 
L 612.286227 197.285093 
L 612.663881 197.177451 
L 613.039779 197.06383 
L 613.413828 196.94426 
L 613.785932 196.81877 
L 614.155999 196.687392 
L 614.523934 196.55016 
L 614.889646 196.407106 
L 615.253042 196.258269 
L 615.614031 196.103684 
L 615.972522 195.943392 
L 616.328424 195.777432 
L 616.681649 195.605846 
L 617.032106 195.428677 
L 617.379709 195.245971 
L 617.724369 195.057772 
L 618.066 194.864129 
L 618.404515 194.665089 
L 618.73983 194.460704 
L 619.07186 194.251025 
L 619.400522 194.036104 
L 619.725732 193.815995 
L 620.047409 193.590755 
L 620.365471 193.360439 
L 620.67984 193.125106 
L 620.990435 192.884814 
L 621.297179 192.639625 
L 621.599993 192.3896 
L 621.898803 192.134802 
L 622.193533 191.875295 
L 622.484108 191.611145 
L 622.770456 191.342417 
L 623.052503 191.069181 
L 623.330181 190.791503 
L 623.603417 190.509456 
L 623.872145 190.223108 
L 624.136295 189.932533 
L 624.395802 189.637803 
L 624.6506 189.338993 
L 624.900625 189.036179 
L 625.145814 188.729435 
L 625.386106 188.41884 
L 625.621439 188.104471 
L 625.851755 187.786409 
L 626.076995 187.464732 
L 626.297104 187.139522 
L 626.512025 186.81086 
L 626.721704 186.47883 
L 626.926089 186.143515 
L 627.125129 185.805 
L 627.318772 185.463369 
L 627.506971 185.118709 
L 627.689677 184.771106 
L 627.866846 184.420649 
L 628.038432 184.067424 
L 628.204392 183.711522 
L 628.364684 183.353031 
L 628.519269 182.992042 
L 628.668106 182.628646 
L 628.81116 182.262934 
L 628.948392 181.894999 
L 629.07977 181.524932 
L 629.20526 181.152828 
L 629.32483 180.778779 
L 629.438451 180.402881 
L 629.546093 180.025227 
L 629.64773 179.645913 
L 629.743336 179.265034 
L 629.832887 178.882686 
L 629.916361 178.498965 
L 629.993735 178.113968 
L 630.064992 177.727792 
L 630.130112 177.340535 
L 630.189081 176.952292 
L 630.241882 176.563163 
L 630.288502 176.173245 
L 630.32893 175.782637 
L 630.363156 175.391436 
L 630.39117 174.999742 
L 630.412967 174.607652 
L 630.428539 174.215266 
L 630.437885 173.822683 
L 630.441 173.43 
L 630.441 173.43 
L 630.437885 173.037317 
L 630.428539 172.644734 
L 630.412967 172.252348 
L 630.39117 171.860258 
L 630.363156 171.468564 
L 630.32893 171.077363 
L 630.288502 170.686755 
L 630.241882 170.296837 
L 630.189081 169.907708 
L 630.130112 169.519465 
L 630.064992 169.132208 
L 629.993735 168.746032 
L 629.916361 168.361035 
L 629.832887 167.977314 
L 629.743336 167.594966 
L 629.64773 167.214087 
L 629.546093 166.834773 
L 629.438451 166.457119 
L 629.32483 166.081221 
L 629.20526 165.707172 
L 629.07977 165.335068 
L 628.948392 164.965001 
L 628.81116 164.597066 
L 628.668106 164.231354 
L 628.519269 163.867958 
L 628.364684 163.506969 
L 628.204392 163.148478 
L 628.038432 162.792576 
L 627.866846 162.439351 
L 627.689677 162.088894 
L 627.506971 161.741291 
L 627.318772 161.396631 
L 627.125129 161.055 
L 626.926089 160.716485 
L 626.721704 160.38117 
L 626.512025 160.04914 
L 626.297104 159.720478 
L 626.076995 159.395268 
L 625.851755 159.073591 
L 625.621439 158.755529 
L 625.386106 158.44116 
L 625.145814 158.130565 
L 624.900625 157.823821 
L 624.6506 157.521007 
L 624.395802 157.222197 
L 624.136295 156.927467 
L 623.872145 156.636892 
L 623.603417 156.350544 
L 623.330181 156.068497 
L 623.052503 155.790819 
L 622.770456 155.517583 
L 622.484108 155.248855 
L 622.193533 154.984705 
L 621.898803 154.725198 
L 621.599993 154.4704 
L 621.297179 154.220375 
L 620.990435 153.975186 
L 620.67984 153.734894 
L 620.365471 153.499561 
L 620.047409 153.269245 
L 619.725732 153.044005 
L 619.400522 152.823896 
L 619.07186 152.608975 
L 618.73983 152.399296 
L 618.404515 152.194911 
L 618.066 151.995871 
L 617.724369 151.802228 
L 617.379709 151.614029 
L 617.032106 151.431323 
L 616.681649 151.254154 
L 616.328424 151.082568 
L 615.972522 150.916608 
L 615.614031 150.756316 
L 615.253042 150.601731 
L 614.889646 150.452894 
L 614.523934 150.30984 
L 614.155999 150.172608 
L 613.785932 150.04123 
L 613.413828 149.91574 
L 613.039779 149.79617 
L 612.663881 149.682549 
L 612.286227 149.574907 
L 611.906913 149.47327 
L 611.526034 149.377664 
L 611.143686 149.288113 
L 610.759965 149.204639 
L 610.374968 149.127265 
L 609.988792 149.056008 
L 609.601535 148.990888 
L 609.213292 148.931919 
L 608.824163 148.879118 
L 608.434245 148.832498 
L 608.043637 148.79207 
L 607.652436 148.757844 
L 607.260742 148.72983 
L 606.868652 148.708033 
L 606.476266 148.692461 
L 606.083683 148.683115 
L 605.691 148.68 
L 547.191 148.68 
L 546.798317 148.683115 
L 546.405734 148.692461 
L 546.013348 148.708033 
L 545.621258 148.72983 
L 545.229564 148.757844 
L 544.838363 148.79207 
L 544.447755 148.832498 
L 544.057837 148.879118 
L 543.668708 148.931919 
L 543.280465 148.990888 
L 542.893208 149.056008 
L 542.507032 149.127265 
L 542.122035 149.204639 
L 541.738314 149.288113 
L 541.355966 149.377664 
L 540.975087 149.47327 
L 540.595773 149.574907 
L 540.218119 149.682549 
L 539.842221 149.79617 
L 539.468172 149.91574 
L 539.096068 150.04123 
L 538.726001 150.172608 
L 538.358066 150.30984 
L 537.992354 150.452894 
L 537.628958 150.601731 
L 537.267969 150.756316 
L 536.909478 150.916608 
L 536.553576 151.082568 
L 536.200351 151.254154 
L 535.849894 151.431323 
L 535.502291 151.614029 
L 535.157631 151.802228 
L 534.816 151.995871 
L 534.477485 152.194911 
L 534.14217 152.399296 
L 533.81014 152.608975 
L 533.481478 152.823896 
L 533.156268 153.044005 
L 532.834591 153.269245 
L 532.516529 153.499561 
L 532.20216 153.734894 
L 531.891565 153.975186 
L 531.584821 154.220375 
L 531.282007 154.4704 
L 530.983197 154.725198 
L 530.688467 154.984705 
L 530.397892 155.248855 
L 530.111544 155.517583 
L 529.829497 155.790819 
L 529.551819 156.068497 
L 529.278583 156.350544 
L 529.009855 156.636892 
L 528.745705 156.927467 
L 528.486198 157.222197 
L 528.2314 157.521007 
L 527.981375 157.823821 
L 527.736186 158.130565 
L 527.495894 158.44116 
L 527.260561 158.755529 
L 527.030245 159.073591 
L 526.805005 159.395268 
L 526.584896 159.720478 
L 526.369975 160.04914 
L 526.160296 160.38117 
L 525.955911 160.716485 
L 525.756871 161.055 
L 525.563228 161.396631 
L 525.375029 161.741291 
L 525.192323 162.088894 
L 525.015154 162.439351 
L 524.843568 162.792576 
L 524.677608 163.148478 
L 524.517316 163.506969 
L 524.362731 163.867958 
L 524.213894 164.231354 
L 524.07084 164.597066 
L 523.933608 164.965001 
L 523.80223 165.335068 
L 523.67674 165.707172 
L 523.55717 166.081221 
L 523.443549 166.457119 
L 523.335907 166.834773 
L 523.23427 167.214087 
L 523.138664 167.594966 
L 523.049113 167.977314 
L 522.965639 168.361035 
L 522.888265 168.746032 
L 522.817008 169.132208 
L 522.751888 169.519465 
L 522.692919 169.907708 
L 522.640118 170.296837 
L 522.593498 170.686755 
L 522.55307 171.077363 
L 522.518844 171.468564 
L 522.49083 171.860258 
L 522.469033 172.252348 
L 522.453461 172.644734 
L 522.444115 173.037317 
L 522.441 173.43 
L 522.441 173.43 
L 522.444115 173.822683 
L 522.453461 174.215266 
L 522.469033 174.607652 
L 522.49083 174.999742 
L 522.518844 175.391436 
L 522.55307 175.782637 
L 522.593498 176.173245 
L 522.640118 176.563163 
L 522.692919 176.952292 
L 522.751888 177.340535 
L 522.817008 177.727792 
L 522.888265 178.113968 
L 522.965639 178.498965 
L 523.049113 178.882686 
L 523.138664 179.265034 
L 523.23427 179.645913 
L 523.335907 180.025227 
L 523.443549 180.402881 
L 523.55717 180.778779 
L 523.67674 181.152828 
L 523.80223 181.524932 
L 523.933608 181.894999 
L 524.07084 182.262934 
L 524.213894 182.628646 
L 524.362731 182.992042 
L 524.517316 183.353031 
L 524.677608 183.711522 
L 524.843568 184.067424 
L 525.015154 184.420649 
L 525.192323 184.771106 
L 525.375029 185.118709 
L 525.563228 185.463369 
L 525.756871 185.805 
L 525.955911 186.143515 
L 526.160296 186.47883 
L 526.369975 186.81086 
L 526.584896 187.139522 
L 526.805005 187.464732 
L 527.030245 187.786409 
L 527.260561 188.104471 
L 527.495894 188.41884 
L 527.736186 188.729435 
L 527.981375 189.036179 
L 528.2314 189.338993 
L 528.486198 189.637803 
L 528.745705 189.932533 
L 529.009855 190.223108 
L 529.278583 190.509456 
L 529.551819 190.791503 
L 529.829497 191.069181 
L 530.111544 191.342417 
L 530.397892 191.611145 
L 530.688467 191.875295 
L 530.983197 192.134802 
L 531.282007 192.3896 
L 531.584821 192.639625 
L 531.891565 192.884814 
L 532.20216 193.125106 
L 532.516529 193.360439 
L 532.834591 193.590755 
L 533.156268 193.815995 
L 533.481478 194.036104 
L 533.81014 194.251025 
L 534.14217 194.460704 
L 534.477485 194.665089 
L 534.816 194.864129 
L 535.157631 195.057772 
L 535.502291 195.245971 
L 535.849894 195.428677 
L 536.200351 195.605846 
L 536.553576 195.777432 
L 536.909478 195.943392 
L 537.267969 196.103684 
L 537.628958 196.258269 
L 537.992354 196.407106 
L 538.358066 196.55016 
L 538.726001 196.687392 
L 539.096068 196.81877 
L 539.468172 196.94426 
L 539.842221 197.06383 
L 540.218119 197.177451 
L 540.595773 197.285093 
L 540.975087 197.38673 
L 541.355966 197.482336 
L 541.738314 197.571887 
L 542.122035 197.655361 
L 542.507032 197.732735 
L 542.893208 197.803992 
L 543.280465 197.869112 
L 543.668708 197.928081 
L 544.057837 197.980882 
L 544.447755 198.027502 
L 544.838363 198.06793 
L 545.229564 198.102156 
L 545.621258 198.13017 
L 546.013348 198.151967 
L 546.405734 198.167539 
L 546.798317 198.176885 
L 547.191 198.18 
L 605.691 198.18 
z
" clip-path="url(#pe57781407b)" style="fill: none; stroke: #000000; stroke-width: 2; stroke-linecap: round"/>
   </g>
   <g id="patch_14">
    <path d="M 489.879 265.68 
L 490.235984 265.677168 
L 490.592879 265.668672 
L 490.949593 265.654515 
L 491.306038 265.6347 
L 491.662124 265.609232 
L 492.017761 265.578118 
L 492.372859 265.541365 
L 492.72733 265.498983 
L 493.081084 265.450982 
L 493.434031 265.397375 
L 493.786084 265.338174 
L 494.137153 265.273396 
L 494.48715 265.203055 
L 494.835987 265.12717 
L 495.183576 265.04576 
L 495.52983 264.958846 
L 495.874661 264.866449 
L 496.217983 264.768592 
L 496.559708 264.6653 
L 496.899753 264.5566 
L 497.238029 264.442518 
L 497.574453 264.323084 
L 497.90894 264.198327 
L 498.241405 264.068278 
L 498.571765 263.932972 
L 498.899937 263.79244 
L 499.225838 263.64672 
L 499.549386 263.495847 
L 499.870499 263.33986 
L 500.189097 263.178798 
L 500.505099 263.012701 
L 500.818427 262.841611 
L 501.129 262.665572 
L 501.436741 262.484627 
L 501.741573 262.298822 
L 502.043418 262.108204 
L 502.342201 261.912822 
L 502.637847 261.712723 
L 502.93028 261.507959 
L 503.219428 261.298581 
L 503.505218 261.084641 
L 503.787577 260.866195 
L 504.066435 260.643295 
L 504.341721 260.416 
L 504.613367 260.184365 
L 504.881303 259.94845 
L 505.145462 259.708313 
L 505.405778 259.464016 
L 505.662185 259.215619 
L 505.914619 258.963185 
L 506.163016 258.706778 
L 506.407313 258.446462 
L 506.64745 258.182303 
L 506.883365 257.914367 
L 507.115 257.642721 
L 507.342295 257.367435 
L 507.565195 257.088577 
L 507.783641 256.806218 
L 507.997581 256.520428 
L 508.206959 256.23128 
L 508.411723 255.938847 
L 508.611822 255.643201 
L 508.807204 255.344418 
L 508.997822 255.042573 
L 509.183627 254.737741 
L 509.364572 254.43 
L 509.540611 254.119427 
L 509.711701 253.806099 
L 509.877798 253.490097 
L 510.03886 253.171499 
L 510.194847 252.850386 
L 510.34572 252.526838 
L 510.49144 252.200937 
L 510.631972 251.872765 
L 510.767278 251.542405 
L 510.897327 251.20994 
L 511.022084 250.875453 
L 511.141518 250.539029 
L 511.2556 250.200753 
L 511.3643 249.860708 
L 511.467592 249.518983 
L 511.565449 249.175661 
L 511.657846 248.83083 
L 511.74476 248.484576 
L 511.82617 248.136987 
L 511.902055 247.78815 
L 511.972396 247.438153 
L 512.037174 247.087084 
L 512.096375 246.735031 
L 512.149982 246.382084 
L 512.197983 246.02833 
L 512.240365 245.673859 
L 512.277118 245.318761 
L 512.308232 244.963124 
L 512.3337 244.607038 
L 512.353515 244.250593 
L 512.367672 243.893879 
L 512.376168 243.536984 
L 512.379 243.18 
L 512.379 243.18 
L 512.376168 242.823016 
L 512.367672 242.466121 
L 512.353515 242.109407 
L 512.3337 241.752962 
L 512.308232 241.396876 
L 512.277118 241.041239 
L 512.240365 240.686141 
L 512.197983 240.33167 
L 512.149982 239.977916 
L 512.096375 239.624969 
L 512.037174 239.272916 
L 511.972396 238.921847 
L 511.902055 238.57185 
L 511.82617 238.223013 
L 511.74476 237.875424 
L 511.657846 237.52917 
L 511.565449 237.184339 
L 511.467592 236.841017 
L 511.3643 236.499292 
L 511.2556 236.159247 
L 511.141518 235.820971 
L 511.022084 235.484547 
L 510.897327 235.15006 
L 510.767278 234.817595 
L 510.631972 234.487235 
L 510.49144 234.159063 
L 510.34572 233.833162 
L 510.194847 233.509614 
L 510.03886 233.188501 
L 509.877798 232.869903 
L 509.711701 232.553901 
L 509.540611 232.240573 
L 509.364572 231.93 
L 509.183627 231.622259 
L 508.997822 231.317427 
L 508.807204 231.015582 
L 508.611822 230.716799 
L 508.411723 230.421153 
L 508.206959 230.12872 
L 507.997581 229.839572 
L 507.783641 229.553782 
L 507.565195 229.271423 
L 507.342295 228.992565 
L 507.115 228.717279 
L 506.883365 228.445633 
L 506.64745 228.177697 
L 506.407313 227.913538 
L 506.163016 227.653222 
L 505.914619 227.396815 
L 505.662185 227.144381 
L 505.405778 226.895984 
L 505.145462 226.651687 
L 504.881303 226.41155 
L 504.613367 226.175635 
L 504.341721 225.944 
L 504.066435 225.716705 
L 503.787577 225.493805 
L 503.505218 225.275359 
L 503.219428 225.061419 
L 502.93028 224.852041 
L 502.637847 224.647277 
L 502.342201 224.447178 
L 502.043418 224.251796 
L 501.741573 224.061178 
L 501.436741 223.875373 
L 501.129 223.694428 
L 500.818427 223.518389 
L 500.505099 223.347299 
L 500.189097 223.181202 
L 499.870499 223.02014 
L 499.549386 222.864153 
L 499.225838 222.71328 
L 498.899937 222.56756 
L 498.571765 222.427028 
L 498.241405 222.291722 
L 497.90894 222.161673 
L 497.574453 222.036916 
L 497.238029 221.917482 
L 496.899753 221.8034 
L 496.559708 221.6947 
L 496.217983 221.591408 
L 495.874661 221.493551 
L 495.52983 221.401154 
L 495.183576 221.31424 
L 494.835987 221.23283 
L 494.48715 221.156945 
L 494.137153 221.086604 
L 493.786084 221.021826 
L 493.434031 220.962625 
L 493.081084 220.909018 
L 492.72733 220.861017 
L 492.372859 220.818635 
L 492.017761 220.781882 
L 491.662124 220.750768 
L 491.306038 220.7253 
L 490.949593 220.705485 
L 490.592879 220.691328 
L 490.235984 220.682832 
L 489.879 220.68 
L 425.403 220.68 
L 425.046016 220.682832 
L 424.689121 220.691328 
L 424.332407 220.705485 
L 423.975962 220.7253 
L 423.619876 220.750768 
L 423.264239 220.781882 
L 422.909141 220.818635 
L 422.55467 220.861017 
L 422.200916 220.909018 
L 421.847969 220.962625 
L 421.495916 221.021826 
L 421.144847 221.086604 
L 420.79485 221.156945 
L 420.446013 221.23283 
L 420.098424 221.31424 
L 419.75217 221.401154 
L 419.407339 221.493551 
L 419.064017 221.591408 
L 418.722292 221.6947 
L 418.382247 221.8034 
L 418.043971 221.917482 
L 417.707547 222.036916 
L 417.37306 222.161673 
L 417.040595 222.291722 
L 416.710235 222.427028 
L 416.382063 222.56756 
L 416.056162 222.71328 
L 415.732614 222.864153 
L 415.411501 223.02014 
L 415.092903 223.181202 
L 414.776901 223.347299 
L 414.463573 223.518389 
L 414.153 223.694428 
L 413.845259 223.875373 
L 413.540427 224.061178 
L 413.238582 224.251796 
L 412.939799 224.447178 
L 412.644153 224.647277 
L 412.35172 224.852041 
L 412.062572 225.061419 
L 411.776782 225.275359 
L 411.494423 225.493805 
L 411.215565 225.716705 
L 410.940279 225.944 
L 410.668633 226.175635 
L 410.400697 226.41155 
L 410.136538 226.651687 
L 409.876222 226.895984 
L 409.619815 227.144381 
L 409.367381 227.396815 
L 409.118984 227.653222 
L 408.874687 227.913538 
L 408.63455 228.177697 
L 408.398635 228.445633 
L 408.167 228.717279 
L 407.939705 228.992565 
L 407.716805 229.271423 
L 407.498359 229.553782 
L 407.284419 229.839572 
L 407.075041 230.12872 
L 406.870277 230.421153 
L 406.670178 230.716799 
L 406.474796 231.015582 
L 406.284178 231.317427 
L 406.098373 231.622259 
L 405.917428 231.93 
L 405.741389 232.240573 
L 405.570299 232.553901 
L 405.404202 232.869903 
L 405.24314 233.188501 
L 405.087153 233.509614 
L 404.93628 233.833162 
L 404.79056 234.159063 
L 404.650028 234.487235 
L 404.514722 234.817595 
L 404.384673 235.15006 
L 404.259916 235.484547 
L 404.140482 235.820971 
L 404.0264 236.159247 
L 403.9177 236.499292 
L 403.814408 236.841017 
L 403.716551 237.184339 
L 403.624154 237.52917 
L 403.53724 237.875424 
L 403.45583 238.223013 
L 403.379945 238.57185 
L 403.309604 238.921847 
L 403.244826 239.272916 
L 403.185625 239.624969 
L 403.132018 239.977916 
L 403.084017 240.33167 
L 403.041635 240.686141 
L 403.004882 241.041239 
L 402.973768 241.396876 
L 402.9483 241.752962 
L 402.928485 242.109407 
L 402.914328 242.466121 
L 402.905832 242.823016 
L 402.903 243.18 
L 402.903 243.18 
L 402.905832 243.536984 
L 402.914328 243.893879 
L 402.928485 244.250593 
L 402.9483 244.607038 
L 402.973768 244.963124 
L 403.004882 245.318761 
L 403.041635 245.673859 
L 403.084017 246.02833 
L 403.132018 246.382084 
L 403.185625 246.735031 
L 403.244826 247.087084 
L 403.309604 247.438153 
L 403.379945 247.78815 
L 403.45583 248.136987 
L 403.53724 248.484576 
L 403.624154 248.83083 
L 403.716551 249.175661 
L 403.814408 249.518983 
L 403.9177 249.860708 
L 404.0264 250.200753 
L 404.140482 250.539029 
L 404.259916 250.875453 
L 404.384673 251.20994 
L 404.514722 251.542405 
L 404.650028 251.872765 
L 404.79056 252.200937 
L 404.93628 252.526838 
L 405.087153 252.850386 
L 405.24314 253.171499 
L 405.404202 253.490097 
L 405.570299 253.806099 
L 405.741389 254.119427 
L 405.917428 254.43 
L 406.098373 254.737741 
L 406.284178 255.042573 
L 406.474796 255.344418 
L 406.670178 255.643201 
L 406.870277 255.938847 
L 407.075041 256.23128 
L 407.284419 256.520428 
L 407.498359 256.806218 
L 407.716805 257.088577 
L 407.939705 257.367435 
L 408.167 257.642721 
L 408.398635 257.914367 
L 408.63455 258.182303 
L 408.874687 258.446462 
L 409.118984 258.706778 
L 409.367381 258.963185 
L 409.619815 259.215619 
L 409.876222 259.464016 
L 410.136538 259.708313 
L 410.400697 259.94845 
L 410.668633 260.184365 
L 410.940279 260.416 
L 411.215565 260.643295 
L 411.494423 260.866195 
L 411.776782 261.084641 
L 412.062572 261.298581 
L 412.35172 261.507959 
L 412.644153 261.712723 
L 412.939799 261.912822 
L 413.238582 262.108204 
L 413.540427 262.298822 
L 413.845259 262.484627 
L 414.153 262.665572 
L 414.463573 262.841611 
L 414.776901 263.012701 
L 415.092903 263.178798 
L 415.411501 263.33986 
L 415.732614 263.495847 
L 416.056162 263.64672 
L 416.382063 263.79244 
L 416.710235 263.932972 
L 417.040595 264.068278 
L 417.37306 264.198327 
L 417.707547 264.323084 
L 418.043971 264.442518 
L 418.382247 264.5566 
L 418.722292 264.6653 
L 419.064017 264.768592 
L 419.407339 264.866449 
L 419.75217 264.958846 
L 420.098424 265.04576 
L 420.446013 265.12717 
L 420.79485 265.203055 
L 421.144847 265.273396 
L 421.495916 265.338174 
L 421.847969 265.397375 
L 422.200916 265.450982 
L 422.55467 265.498983 
L 422.909141 265.541365 
L 423.264239 265.578118 
L 423.619876 265.609232 
L 423.975962 265.6347 
L 424.332407 265.654515 
L 424.689121 265.668672 
L 425.046016 265.677168 
L 425.403 265.68 
L 489.879 265.68 
z
" clip-path="url(#pe57781407b)" style="fill: none; stroke: #000000; stroke-width: 2; stroke-linecap: round"/>
   </g>
   <g id="patch_15">
    <path d="M 605.691 270.18 
L 606.083683 270.176885 
L 606.476266 270.167539 
L 606.868652 270.151967 
L 607.260742 270.13017 
L 607.652436 270.102156 
L 608.043637 270.06793 
L 608.434245 270.027502 
L 608.824163 269.980882 
L 609.213292 269.928081 
L 609.601535 269.869112 
L 609.988792 269.803992 
L 610.374968 269.732735 
L 610.759965 269.655361 
L 611.143686 269.571887 
L 611.526034 269.482336 
L 611.906913 269.38673 
L 612.286227 269.285093 
L 612.663881 269.177451 
L 613.039779 269.06383 
L 613.413828 268.94426 
L 613.785932 268.81877 
L 614.155999 268.687392 
L 614.523934 268.55016 
L 614.889646 268.407106 
L 615.253042 268.258269 
L 615.614031 268.103684 
L 615.972522 267.943392 
L 616.328424 267.777432 
L 616.681649 267.605846 
L 617.032106 267.428677 
L 617.379709 267.245971 
L 617.724369 267.057772 
L 618.066 266.864129 
L 618.404515 266.665089 
L 618.73983 266.460704 
L 619.07186 266.251025 
L 619.400522 266.036104 
L 619.725732 265.815995 
L 620.047409 265.590755 
L 620.365471 265.360439 
L 620.67984 265.125106 
L 620.990435 264.884814 
L 621.297179 264.639625 
L 621.599993 264.3896 
L 621.898803 264.134802 
L 622.193533 263.875295 
L 622.484108 263.611145 
L 622.770456 263.342417 
L 623.052503 263.069181 
L 623.330181 262.791503 
L 623.603417 262.509456 
L 623.872145 262.223108 
L 624.136295 261.932533 
L 624.395802 261.637803 
L 624.6506 261.338993 
L 624.900625 261.036179 
L 625.145814 260.729435 
L 625.386106 260.41884 
L 625.621439 260.104471 
L 625.851755 259.786409 
L 626.076995 259.464732 
L 626.297104 259.139522 
L 626.512025 258.81086 
L 626.721704 258.47883 
L 626.926089 258.143515 
L 627.125129 257.805 
L 627.318772 257.463369 
L 627.506971 257.118709 
L 627.689677 256.771106 
L 627.866846 256.420649 
L 628.038432 256.067424 
L 628.204392 255.711522 
L 628.364684 255.353031 
L 628.519269 254.992042 
L 628.668106 254.628646 
L 628.81116 254.262934 
L 628.948392 253.894999 
L 629.07977 253.524932 
L 629.20526 253.152828 
L 629.32483 252.778779 
L 629.438451 252.402881 
L 629.546093 252.025227 
L 629.64773 251.645913 
L 629.743336 251.265034 
L 629.832887 250.882686 
L 629.916361 250.498965 
L 629.993735 250.113968 
L 630.064992 249.727792 
L 630.130112 249.340535 
L 630.189081 248.952292 
L 630.241882 248.563163 
L 630.288502 248.173245 
L 630.32893 247.782637 
L 630.363156 247.391436 
L 630.39117 246.999742 
L 630.412967 246.607652 
L 630.428539 246.215266 
L 630.437885 245.822683 
L 630.441 245.43 
L 630.441 245.43 
L 630.437885 245.037317 
L 630.428539 244.644734 
L 630.412967 244.252348 
L 630.39117 243.860258 
L 630.363156 243.468564 
L 630.32893 243.077363 
L 630.288502 242.686755 
L 630.241882 242.296837 
L 630.189081 241.907708 
L 630.130112 241.519465 
L 630.064992 241.132208 
L 629.993735 240.746032 
L 629.916361 240.361035 
L 629.832887 239.977314 
L 629.743336 239.594966 
L 629.64773 239.214087 
L 629.546093 238.834773 
L 629.438451 238.457119 
L 629.32483 238.081221 
L 629.20526 237.707172 
L 629.07977 237.335068 
L 628.948392 236.965001 
L 628.81116 236.597066 
L 628.668106 236.231354 
L 628.519269 235.867958 
L 628.364684 235.506969 
L 628.204392 235.148478 
L 628.038432 234.792576 
L 627.866846 234.439351 
L 627.689677 234.088894 
L 627.506971 233.741291 
L 627.318772 233.396631 
L 627.125129 233.055 
L 626.926089 232.716485 
L 626.721704 232.38117 
L 626.512025 232.04914 
L 626.297104 231.720478 
L 626.076995 231.395268 
L 625.851755 231.073591 
L 625.621439 230.755529 
L 625.386106 230.44116 
L 625.145814 230.130565 
L 624.900625 229.823821 
L 624.6506 229.521007 
L 624.395802 229.222197 
L 624.136295 228.927467 
L 623.872145 228.636892 
L 623.603417 228.350544 
L 623.330181 228.068497 
L 623.052503 227.790819 
L 622.770456 227.517583 
L 622.484108 227.248855 
L 622.193533 226.984705 
L 621.898803 226.725198 
L 621.599993 226.4704 
L 621.297179 226.220375 
L 620.990435 225.975186 
L 620.67984 225.734894 
L 620.365471 225.499561 
L 620.047409 225.269245 
L 619.725732 225.044005 
L 619.400522 224.823896 
L 619.07186 224.608975 
L 618.73983 224.399296 
L 618.404515 224.194911 
L 618.066 223.995871 
L 617.724369 223.802228 
L 617.379709 223.614029 
L 617.032106 223.431323 
L 616.681649 223.254154 
L 616.328424 223.082568 
L 615.972522 222.916608 
L 615.614031 222.756316 
L 615.253042 222.601731 
L 614.889646 222.452894 
L 614.523934 222.30984 
L 614.155999 222.172608 
L 613.785932 222.04123 
L 613.413828 221.91574 
L 613.039779 221.79617 
L 612.663881 221.682549 
L 612.286227 221.574907 
L 611.906913 221.47327 
L 611.526034 221.377664 
L 611.143686 221.288113 
L 610.759965 221.204639 
L 610.374968 221.127265 
L 609.988792 221.056008 
L 609.601535 220.990888 
L 609.213292 220.931919 
L 608.824163 220.879118 
L 608.434245 220.832498 
L 608.043637 220.79207 
L 607.652436 220.757844 
L 607.260742 220.72983 
L 606.868652 220.708033 
L 606.476266 220.692461 
L 606.083683 220.683115 
L 605.691 220.68 
L 547.191 220.68 
L 546.798317 220.683115 
L 546.405734 220.692461 
L 546.013348 220.708033 
L 545.621258 220.72983 
L 545.229564 220.757844 
L 544.838363 220.79207 
L 544.447755 220.832498 
L 544.057837 220.879118 
L 543.668708 220.931919 
L 543.280465 220.990888 
L 542.893208 221.056008 
L 542.507032 221.127265 
L 542.122035 221.204639 
L 541.738314 221.288113 
L 541.355966 221.377664 
L 540.975087 221.47327 
L 540.595773 221.574907 
L 540.218119 221.682549 
L 539.842221 221.79617 
L 539.468172 221.91574 
L 539.096068 222.04123 
L 538.726001 222.172608 
L 538.358066 222.30984 
L 537.992354 222.452894 
L 537.628958 222.601731 
L 537.267969 222.756316 
L 536.909478 222.916608 
L 536.553576 223.082568 
L 536.200351 223.254154 
L 535.849894 223.431323 
L 535.502291 223.614029 
L 535.157631 223.802228 
L 534.816 223.995871 
L 534.477485 224.194911 
L 534.14217 224.399296 
L 533.81014 224.608975 
L 533.481478 224.823896 
L 533.156268 225.044005 
L 532.834591 225.269245 
L 532.516529 225.499561 
L 532.20216 225.734894 
L 531.891565 225.975186 
L 531.584821 226.220375 
L 531.282007 226.4704 
L 530.983197 226.725198 
L 530.688467 226.984705 
L 530.397892 227.248855 
L 530.111544 227.517583 
L 529.829497 227.790819 
L 529.551819 228.068497 
L 529.278583 228.350544 
L 529.009855 228.636892 
L 528.745705 228.927467 
L 528.486198 229.222197 
L 528.2314 229.521007 
L 527.981375 229.823821 
L 527.736186 230.130565 
L 527.495894 230.44116 
L 527.260561 230.755529 
L 527.030245 231.073591 
L 526.805005 231.395268 
L 526.584896 231.720478 
L 526.369975 232.04914 
L 526.160296 232.38117 
L 525.955911 232.716485 
L 525.756871 233.055 
L 525.563228 233.396631 
L 525.375029 233.741291 
L 525.192323 234.088894 
L 525.015154 234.439351 
L 524.843568 234.792576 
L 524.677608 235.148478 
L 524.517316 235.506969 
L 524.362731 235.867958 
L 524.213894 236.231354 
L 524.07084 236.597066 
L 523.933608 236.965001 
L 523.80223 237.335068 
L 523.67674 237.707172 
L 523.55717 238.081221 
L 523.443549 238.457119 
L 523.335907 238.834773 
L 523.23427 239.214087 
L 523.138664 239.594966 
L 523.049113 239.977314 
L 522.965639 240.361035 
L 522.888265 240.746032 
L 522.817008 241.132208 
L 522.751888 241.519465 
L 522.692919 241.907708 
L 522.640118 242.296837 
L 522.593498 242.686755 
L 522.55307 243.077363 
L 522.518844 243.468564 
L 522.49083 243.860258 
L 522.469033 244.252348 
L 522.453461 244.644734 
L 522.444115 245.037317 
L 522.441 245.43 
L 522.441 245.43 
L 522.444115 245.822683 
L 522.453461 246.215266 
L 522.469033 246.607652 
L 522.49083 246.999742 
L 522.518844 247.391436 
L 522.55307 247.782637 
L 522.593498 248.173245 
L 522.640118 248.563163 
L 522.692919 248.952292 
L 522.751888 249.340535 
L 522.817008 249.727792 
L 522.888265 250.113968 
L 522.965639 250.498965 
L 523.049113 250.882686 
L 523.138664 251.265034 
L 523.23427 251.645913 
L 523.335907 252.025227 
L 523.443549 252.402881 
L 523.55717 252.778779 
L 523.67674 253.152828 
L 523.80223 253.524932 
L 523.933608 253.894999 
L 524.07084 254.262934 
L 524.213894 254.628646 
L 524.362731 254.992042 
L 524.517316 255.353031 
L 524.677608 255.711522 
L 524.843568 256.067424 
L 525.015154 256.420649 
L 525.192323 256.771106 
L 525.375029 257.118709 
L 525.563228 257.463369 
L 525.756871 257.805 
L 525.955911 258.143515 
L 526.160296 258.47883 
L 526.369975 258.81086 
L 526.584896 259.139522 
L 526.805005 259.464732 
L 527.030245 259.786409 
L 527.260561 260.104471 
L 527.495894 260.41884 
L 527.736186 260.729435 
L 527.981375 261.036179 
L 528.2314 261.338993 
L 528.486198 261.637803 
L 528.745705 261.932533 
L 529.009855 262.223108 
L 529.278583 262.509456 
L 529.551819 262.791503 
L 529.829497 263.069181 
L 530.111544 263.342417 
L 530.397892 263.611145 
L 530.688467 263.875295 
L 530.983197 264.134802 
L 531.282007 264.3896 
L 531.584821 264.639625 
L 531.891565 264.884814 
L 532.20216 265.125106 
L 532.516529 265.360439 
L 532.834591 265.590755 
L 533.156268 265.815995 
L 533.481478 266.036104 
L 533.81014 266.251025 
L 534.14217 266.460704 
L 534.477485 266.665089 
L 534.816 266.864129 
L 535.157631 267.057772 
L 535.502291 267.245971 
L 535.849894 267.428677 
L 536.200351 267.605846 
L 536.553576 267.777432 
L 536.909478 267.943392 
L 537.267969 268.103684 
L 537.628958 268.258269 
L 537.992354 268.407106 
L 538.358066 268.55016 
L 538.726001 268.687392 
L 539.096068 268.81877 
L 539.468172 268.94426 
L 539.842221 269.06383 
L 540.218119 269.177451 
L 540.595773 269.285093 
L 540.975087 269.38673 
L 541.355966 269.482336 
L 541.738314 269.571887 
L 542.122035 269.655361 
L 542.507032 269.732735 
L 542.893208 269.803992 
L 543.280465 269.869112 
L 543.668708 269.928081 
L 544.057837 269.980882 
L 544.447755 270.027502 
L 544.838363 270.06793 
L 545.229564 270.102156 
L 545.621258 270.13017 
L 546.013348 270.151967 
L 546.405734 270.167539 
L 546.798317 270.176885 
L 547.191 270.18 
L 605.691 270.18 
z
" clip-path="url(#pe57781407b)" style="fill: none; stroke: #000000; stroke-width: 2; stroke-linecap: round"/>
   </g>
   <g id="patch_16">
    <path d="M 511.641 171.18 
Q 518.166 166.905 522.441 173.43 
" clip-path="url(#pe57781407b)" style="fill: none; stroke: #000000; stroke-width: 2; stroke-linejoin: miter; stroke-linecap: round"/>
   </g>
   <g id="patch_17">
    <path d="M 512.379 243.18 
Q 518.535 239.274 522.441 245.43 
" clip-path="url(#pe57781407b)" style="fill: none; stroke: #000000; stroke-width: 2; stroke-linejoin: miter; stroke-linecap: round"/>
   </g>
   <g id="patch_18">
    <path d="M 299.486403 83.270097 
C 376.477351 83.270097 322.150052 171.18 403.641 171.18 
" clip-path="url(#pe57781407b)" style="fill: none; stroke: #000000; stroke-width: 2; stroke-linejoin: miter; stroke-linecap: round"/>
   </g>
   <g id="patch_19">
    <path d="M 303.986403 86.870097 
L 294.986403 83.270097 
L 303.986403 79.670097 
z
" clip-path="url(#pe57781407b)"/>
   </g>
   <g id="patch_20">
    <path d="M 398.403 243.18 
C 321.965552 243.18 375.923851 115.089903 294.986403 115.089903 
" clip-path="url(#pe57781407b)" style="fill: none; stroke: #000000; stroke-width: 2; stroke-linejoin: miter; stroke-linecap: round"/>
   </g>
   <g id="patch_21">
    <path d="M 393.903 239.58 
L 402.903 243.18 
L 393.903 246.78 
z
" clip-path="url(#pe57781407b)"/>
   </g>
   <g id="line2d_1">
    <path d="M 457.641 148.68 
L 456.01474 147.237852 
L 454.541652 145.639564 
L 453.236654 143.901319 
L 452.11296 142.040721 
L 451.181949 140.07661 
L 450.453049 138.028875 
L 449.933641 135.918253 
L 449.628984 133.766115 
L 449.542164 131.594255 
L 449.67406 129.424666 
L 450.023335 127.279318 
L 450.586454 125.179934 
L 451.357713 123.147775 
L 452.329304 121.203418 
L 453.491387 119.366552 
L 454.832194 117.655778 
L 456.338149 116.088419 
L 457.994002 114.680348 
L 459.782985 113.445822 
L 461.686982 112.397343 
L 463.686713 111.545528 
L 465.761928 110.899003 
L 467.891613 110.464314 
L 470.054203 110.245864 
L 472.227797 110.245864 
L 474.390387 110.464314 
L 476.520072 110.899003 
L 478.595287 111.545528 
L 480.595018 112.397343 
L 482.499015 113.445822 
L 484.287998 114.680348 
L 485.943851 116.088419 
L 487.449806 117.655778 
L 488.790613 119.366552 
L 489.952696 121.203418 
L 490.924287 123.147775 
L 491.695546 125.179934 
L 492.258665 127.279318 
L 492.60794 129.424666 
L 492.739836 131.594255 
L 492.653016 133.766115 
L 492.348359 135.918253 
L 491.828951 138.028875 
L 491.100051 140.07661 
L 490.16904 142.040721 
L 489.045346 143.901319 
L 487.740348 145.639564 
L 486.26726 147.237852 
L 491.374704 142.708633 
" clip-path="url(#pe57781407b)" style="fill: none; stroke: #000000; stroke-width: 2; stroke-linecap: round"/>
   </g>
   <g id="patch_22">
    <path d="M 493.763251 145.402114 
L 484.641 148.68 
L 488.986157 140.015151 
z
" clip-path="url(#pe57781407b)"/>
   </g>
   <g id="text_1">
    <!-- Desktop Computer -->
    <g transform="translate(32.575375 29.939375) scale(0.1 -0.1)">
     <defs>
      <path id="DejaVuSans-44" d="M 1259 4147 
L 1259 519 
L 2022 519 
Q 2988 519 3436 956 
Q 3884 1394 3884 2338 
Q 3884 3275 3436 3711 
Q 2988 4147 2022 4147 
L 1259 4147 
z
M 628 4666 
L 1925 4666 
Q 3281 4666 3915 4102 
Q 4550 3538 4550 2338 
Q 4550 1131 3912 565 
Q 3275 0 1925 0 
L 628 0 
L 628 4666 
z
" transform="scale(0.015625)"/>
      <path id="DejaVuSans-65" d="M 3597 1894 
L 3597 1613 
L 953 1613 
Q 991 1019 1311 708 
Q 1631 397 2203 397 
Q 2534 397 2845 478 
Q 3156 559 3463 722 
L 3463 178 
Q 3153 47 2828 -22 
Q 2503 -91 2169 -91 
Q 1331 -91 842 396 
Q 353 884 353 1716 
Q 353 2575 817 3079 
Q 1281 3584 2069 3584 
Q 2775 3584 3186 3129 
Q 3597 2675 3597 1894 
z
M 3022 2063 
Q 3016 2534 2758 2815 
Q 2500 3097 2075 3097 
Q 1594 3097 1305 2825 
Q 1016 2553 972 2059 
L 3022 2063 
z
" transform="scale(0.015625)"/>
      <path id="DejaVuSans-73" d="M 2834 3397 
L 2834 2853 
Q 2591 2978 2328 3040 
Q 2066 3103 1784 3103 
Q 1356 3103 1142 2972 
Q 928 2841 928 2578 
Q 928 2378 1081 2264 
Q 1234 2150 1697 2047 
L 1894 2003 
Q 2506 1872 2764 1633 
Q 3022 1394 3022 966 
Q 3022 478 2636 193 
Q 2250 -91 1575 -91 
Q 1294 -91 989 -36 
Q 684 19 347 128 
L 347 722 
Q 666 556 975 473 
Q 1284 391 1588 391 
Q 1994 391 2212 530 
Q 2431 669 2431 922 
Q 2431 1156 2273 1281 
Q 2116 1406 1581 1522 
L 1381 1569 
Q 847 1681 609 1914 
Q 372 2147 372 2553 
Q 372 3047 722 3315 
Q 1072 3584 1716 3584 
Q 2034 3584 2315 3537 
Q 2597 3491 2834 3397 
z
" transform="scale(0.015625)"/>
      <path id="DejaVuSans-6b" d="M 581 4863 
L 1159 4863 
L 1159 1991 
L 2875 3500 
L 3609 3500 
L 1753 1863 
L 3688 0 
L 2938 0 
L 1159 1709 
L 1159 0 
L 581 0 
L 581 4863 
z
" transform="scale(0.015625)"/>
      <path id="DejaVuSans-74" d="M 1172 4494 
L 1172 3500 
L 2356 3500 
L 2356 3053 
L 1172 3053 
L 1172 1153 
Q 1172 725 1289 603 
Q 1406 481 1766 481 
L 2356 481 
L 2356 0 
L 1766 0 
Q 1100 0 847 248 
Q 594 497 594 1153 
L 594 3053 
L 172 3053 
L 172 3500 
L 594 3500 
L 594 4494 
L 1172 4494 
z
" transform="scale(0.015625)"/>
      <path id="DejaVuSans-6f" d="M 1959 3097 
Q 1497 3097 1228 2736 
Q 959 2375 959 1747 
Q 959 1119 1226 758 
Q 1494 397 1959 397 
Q 2419 397 2687 759 
Q 2956 1122 2956 1747 
Q 2956 2369 2687 2733 
Q 2419 3097 1959 3097 
z
M 1959 3584 
Q 2709 3584 3137 3096 
Q 3566 2609 3566 1747 
Q 3566 888 3137 398 
Q 2709 -91 1959 -91 
Q 1206 -91 779 398 
Q 353 888 353 1747 
Q 353 2609 779 3096 
Q 1206 3584 1959 3584 
z
" transform="scale(0.015625)"/>
      <path id="DejaVuSans-70" d="M 1159 525 
L 1159 -1331 
L 581 -1331 
L 581 3500 
L 1159 3500 
L 1159 2969 
Q 1341 3281 1617 3432 
Q 1894 3584 2278 3584 
Q 2916 3584 3314 3078 
Q 3713 2572 3713 1747 
Q 3713 922 3314 415 
Q 2916 -91 2278 -91 
Q 1894 -91 1617 61 
Q 1341 213 1159 525 
z
M 3116 1747 
Q 3116 2381 2855 2742 
Q 2594 3103 2138 3103 
Q 1681 3103 1420 2742 
Q 1159 2381 1159 1747 
Q 1159 1113 1420 752 
Q 1681 391 2138 391 
Q 2594 391 2855 752 
Q 3116 1113 3116 1747 
z
" transform="scale(0.015625)"/>
      <path id="DejaVuSans-20" transform="scale(0.015625)"/>
      <path id="DejaVuSans-43" d="M 4122 4306 
L 4122 3641 
Q 3803 3938 3442 4084 
Q 3081 4231 2675 4231 
Q 1875 4231 1450 3742 
Q 1025 3253 1025 2328 
Q 1025 1406 1450 917 
Q 1875 428 2675 428 
Q 3081 428 3442 575 
Q 3803 722 4122 1019 
L 4122 359 
Q 3791 134 3420 21 
Q 3050 -91 2638 -91 
Q 1578 -91 968 557 
Q 359 1206 359 2328 
Q 359 3453 968 4101 
Q 1578 4750 2638 4750 
Q 3056 4750 3426 4639 
Q 3797 4528 4122 4306 
z
" transform="scale(0.015625)"/>
      <path id="DejaVuSans-6d" d="M 3328 2828 
Q 3544 3216 3844 3400 
Q 4144 3584 4550 3584 
Q 5097 3584 5394 3201 
Q 5691 2819 5691 2113 
L 5691 0 
L 5113 0 
L 5113 2094 
Q 5113 2597 4934 2840 
Q 4756 3084 4391 3084 
Q 3944 3084 3684 2787 
Q 3425 2491 3425 1978 
L 3425 0 
L 2847 0 
L 2847 2094 
Q 2847 2600 2669 2842 
Q 2491 3084 2119 3084 
Q 1678 3084 1418 2786 
Q 1159 2488 1159 1978 
L 1159 0 
L 581 0 
L 581 3500 
L 1159 3500 
L 1159 2956 
Q 1356 3278 1631 3431 
Q 1906 3584 2284 3584 
Q 2666 3584 2933 3390 
Q 3200 3197 3328 2828 
z
" transform="scale(0.015625)"/>
      <path id="DejaVuSans-75" d="M 544 1381 
L 544 3500 
L 1119 3500 
L 1119 1403 
Q 1119 906 1312 657 
Q 1506 409 1894 409 
Q 2359 409 2629 706 
Q 2900 1003 2900 1516 
L 2900 3500 
L 3475 3500 
L 3475 0 
L 2900 0 
L 2900 538 
Q 2691 219 2414 64 
Q 2138 -91 1772 -91 
Q 1169 -91 856 284 
Q 544 659 544 1381 
z
M 1991 3584 
L 1991 3584 
z
" transform="scale(0.015625)"/>
      <path id="DejaVuSans-72" d="M 2631 2963 
Q 2534 3019 2420 3045 
Q 2306 3072 2169 3072 
Q 1681 3072 1420 2755 
Q 1159 2438 1159 1844 
L 1159 0 
L 581 0 
L 581 3500 
L 1159 3500 
L 1159 2956 
Q 1341 3275 1631 3429 
Q 1922 3584 2338 3584 
Q 2397 3584 2469 3576 
Q 2541 3569 2628 3553 
L 2631 2963 
z
" transform="scale(0.015625)"/>
     </defs>
     <use xlink:href="#DejaVuSans-44"/>
     <use xlink:href="#DejaVuSans-65" transform="translate(77.001953 0)"/>
     <use xlink:href="#DejaVuSans-73" transform="translate(138.525391 0)"/>
     <use xlink:href="#DejaVuSans-6b" transform="translate(190.625 0)"/>
     <use xlink:href="#DejaVuSans-74" transform="translate(248.535156 0)"/>
     <use xlink:href="#DejaVuSans-6f" transform="translate(287.744141 0)"/>
     <use xlink:href="#DejaVuSans-70" transform="translate(348.925781 0)"/>
     <use xlink:href="#DejaVuSans-20" transform="translate(412.402344 0)"/>
     <use xlink:href="#DejaVuSans-43" transform="translate(444.189453 0)"/>
     <use xlink:href="#DejaVuSans-6f" transform="translate(514.013672 0)"/>
     <use xlink:href="#DejaVuSans-6d" transform="translate(575.195312 0)"/>
     <use xlink:href="#DejaVuSans-70" transform="translate(672.607422 0)"/>
     <use xlink:href="#DejaVuSans-75" transform="translate(736.083984 0)"/>
     <use xlink:href="#DejaVuSans-74" transform="translate(799.462891 0)"/>
     <use xlink:href="#DejaVuSans-65" transform="translate(838.671875 0)"/>
     <use xlink:href="#DejaVuSans-72" transform="translate(900.195312 0)"/>
    </g>
   </g>
   <g id="text_2">
    <!-- Picture Server -->
    <g transform="translate(206.465219 101.939375) scale(0.1 -0.1)">
     <defs>
      <path id="DejaVuSans-50" d="M 1259 4147 
L 1259 2394 
L 2053 2394 
Q 2494 2394 2734 2622 
Q 2975 2850 2975 3272 
Q 2975 3691 2734 3919 
Q 2494 4147 2053 4147 
L 1259 4147 
z
M 628 4666 
L 2053 4666 
Q 2838 4666 3239 4311 
Q 3641 3956 3641 3272 
Q 3641 2581 3239 2228 
Q 2838 1875 2053 1875 
L 1259 1875 
L 1259 0 
L 628 0 
L 628 4666 
z
" transform="scale(0.015625)"/>
      <path id="DejaVuSans-69" d="M 603 3500 
L 1178 3500 
L 1178 0 
L 603 0 
L 603 3500 
z
M 603 4863 
L 1178 4863 
L 1178 4134 
L 603 4134 
L 603 4863 
z
" transform="scale(0.015625)"/>
      <path id="DejaVuSans-63" d="M 3122 3366 
L 3122 2828 
Q 2878 2963 2633 3030 
Q 2388 3097 2138 3097 
Q 1578 3097 1268 2742 
Q 959 2388 959 1747 
Q 959 1106 1268 751 
Q 1578 397 2138 397 
Q 2388 397 2633 464 
Q 2878 531 3122 666 
L 3122 134 
Q 2881 22 2623 -34 
Q 2366 -91 2075 -91 
Q 1284 -91 818 406 
Q 353 903 353 1747 
Q 353 2603 823 3093 
Q 1294 3584 2113 3584 
Q 2378 3584 2631 3529 
Q 2884 3475 3122 3366 
z
" transform="scale(0.015625)"/>
      <path id="DejaVuSans-53" d="M 3425 4513 
L 3425 3897 
Q 3066 4069 2747 4153 
Q 2428 4238 2131 4238 
Q 1616 4238 1336 4038 
Q 1056 3838 1056 3469 
Q 1056 3159 1242 3001 
Q 1428 2844 1947 2747 
L 2328 2669 
Q 3034 2534 3370 2195 
Q 3706 1856 3706 1288 
Q 3706 609 3251 259 
Q 2797 -91 1919 -91 
Q 1588 -91 1214 -16 
Q 841 59 441 206 
L 441 856 
Q 825 641 1194 531 
Q 1563 422 1919 422 
Q 2459 422 2753 634 
Q 3047 847 3047 1241 
Q 3047 1584 2836 1778 
Q 2625 1972 2144 2069 
L 1759 2144 
Q 1053 2284 737 2584 
Q 422 2884 422 3419 
Q 422 4038 858 4394 
Q 1294 4750 2059 4750 
Q 2388 4750 2728 4690 
Q 3069 4631 3425 4513 
z
" transform="scale(0.015625)"/>
      <path id="DejaVuSans-76" d="M 191 3500 
L 800 3500 
L 1894 563 
L 2988 3500 
L 3597 3500 
L 2284 0 
L 1503 0 
L 191 3500 
z
" transform="scale(0.015625)"/>
     </defs>
     <use xlink:href="#DejaVuSans-50"/>
     <use xlink:href="#DejaVuSans-69" transform="translate(58.052734 0)"/>
     <use xlink:href="#DejaVuSans-63" transform="translate(85.835938 0)"/>
     <use xlink:href="#DejaVuSans-74" transform="translate(140.816406 0)"/>
     <use xlink:href="#DejaVuSans-75" transform="translate(180.025391 0)"/>
     <use xlink:href="#DejaVuSans-72" transform="translate(243.404297 0)"/>
     <use xlink:href="#DejaVuSans-65" transform="translate(282.267578 0)"/>
     <use xlink:href="#DejaVuSans-20" transform="translate(343.791016 0)"/>
     <use xlink:href="#DejaVuSans-53" transform="translate(375.578125 0)"/>
     <use xlink:href="#DejaVuSans-65" transform="translate(439.054688 0)"/>
     <use xlink:href="#DejaVuSans-72" transform="translate(500.578125 0)"/>
     <use xlink:href="#DejaVuSans-76" transform="translate(541.691406 0)"/>
     <use xlink:href="#DejaVuSans-65" transform="translate(600.871094 0)"/>
     <use xlink:href="#DejaVuSans-72" transform="translate(662.394531 0)"/>
    </g>
   </g>
   <g id="text_3">
    <!-- database -->
    <g transform="translate(110.458969 188.000313) scale(0.1 -0.1)">
     <defs>
      <path id="DejaVuSans-64" d="M 2906 2969 
L 2906 4863 
L 3481 4863 
L 3481 0 
L 2906 0 
L 2906 525 
Q 2725 213 2448 61 
Q 2172 -91 1784 -91 
Q 1150 -91 751 415 
Q 353 922 353 1747 
Q 353 2572 751 3078 
Q 1150 3584 1784 3584 
Q 2172 3584 2448 3432 
Q 2725 3281 2906 2969 
z
M 947 1747 
Q 947 1113 1208 752 
Q 1469 391 1925 391 
Q 2381 391 2643 752 
Q 2906 1113 2906 1747 
Q 2906 2381 2643 2742 
Q 2381 3103 1925 3103 
Q 1469 3103 1208 2742 
Q 947 2381 947 1747 
z
" transform="scale(0.015625)"/>
      <path id="DejaVuSans-61" d="M 2194 1759 
Q 1497 1759 1228 1600 
Q 959 1441 959 1056 
Q 959 750 1161 570 
Q 1363 391 1709 391 
Q 2188 391 2477 730 
Q 2766 1069 2766 1631 
L 2766 1759 
L 2194 1759 
z
M 3341 1997 
L 3341 0 
L 2766 0 
L 2766 531 
Q 2569 213 2275 61 
Q 1981 -91 1556 -91 
Q 1019 -91 701 211 
Q 384 513 384 1019 
Q 384 1609 779 1909 
Q 1175 2209 1959 2209 
L 2766 2209 
L 2766 2266 
Q 2766 2663 2505 2880 
Q 2244 3097 1772 3097 
Q 1472 3097 1187 3025 
Q 903 2953 641 2809 
L 641 3341 
Q 956 3463 1253 3523 
Q 1550 3584 1831 3584 
Q 2591 3584 2966 3190 
Q 3341 2797 3341 1997 
z
" transform="scale(0.015625)"/>
      <path id="DejaVuSans-62" d="M 3116 1747 
Q 3116 2381 2855 2742 
Q 2594 3103 2138 3103 
Q 1681 3103 1420 2742 
Q 1159 2381 1159 1747 
Q 1159 1113 1420 752 
Q 1681 391 2138 391 
Q 2594 391 2855 752 
Q 3116 1113 3116 1747 
z
M 1159 2969 
Q 1341 3281 1617 3432 
Q 1894 3584 2278 3584 
Q 2916 3584 3314 3078 
Q 3713 2572 3713 1747 
Q 3713 922 3314 415 
Q 2916 -91 2278 -91 
Q 1894 -91 1617 61 
Q 1341 213 1159 525 
L 1159 0 
L 581 0 
L 581 4863 
L 1159 4863 
L 1159 2969 
z
" transform="scale(0.015625)"/>
     </defs>
     <use xlink:href="#DejaVuSans-64"/>
     <use xlink:href="#DejaVuSans-61" transform="translate(63.476562 0)"/>
     <use xlink:href="#DejaVuSans-74" transform="translate(124.755859 0)"/>
     <use xlink:href="#DejaVuSans-61" transform="translate(163.964844 0)"/>
     <use xlink:href="#DejaVuSans-62" transform="translate(225.244141 0)"/>
     <use xlink:href="#DejaVuSans-61" transform="translate(288.720703 0)"/>
     <use xlink:href="#DejaVuSans-73" transform="translate(350 0)"/>
     <use xlink:href="#DejaVuSans-65" transform="translate(402.099609 0)"/>
    </g>
    <!-- sqlite3 -->
    <g transform="translate(116.866 197.678438) scale(0.1 -0.1)">
     <defs>
      <path id="DejaVuSans-71" d="M 947 1747 
Q 947 1113 1208 752 
Q 1469 391 1925 391 
Q 2381 391 2643 752 
Q 2906 1113 2906 1747 
Q 2906 2381 2643 2742 
Q 2381 3103 1925 3103 
Q 1469 3103 1208 2742 
Q 947 2381 947 1747 
z
M 2906 525 
Q 2725 213 2448 61 
Q 2172 -91 1784 -91 
Q 1150 -91 751 415 
Q 353 922 353 1747 
Q 353 2572 751 3078 
Q 1150 3584 1784 3584 
Q 2172 3584 2448 3432 
Q 2725 3281 2906 2969 
L 2906 3500 
L 3481 3500 
L 3481 -1331 
L 2906 -1331 
L 2906 525 
z
" transform="scale(0.015625)"/>
      <path id="DejaVuSans-6c" d="M 603 4863 
L 1178 4863 
L 1178 0 
L 603 0 
L 603 4863 
z
" transform="scale(0.015625)"/>
      <path id="DejaVuSans-33" d="M 2597 2516 
Q 3050 2419 3304 2112 
Q 3559 1806 3559 1356 
Q 3559 666 3084 287 
Q 2609 -91 1734 -91 
Q 1441 -91 1130 -33 
Q 819 25 488 141 
L 488 750 
Q 750 597 1062 519 
Q 1375 441 1716 441 
Q 2309 441 2620 675 
Q 2931 909 2931 1356 
Q 2931 1769 2642 2001 
Q 2353 2234 1838 2234 
L 1294 2234 
L 1294 2753 
L 1863 2753 
Q 2328 2753 2575 2939 
Q 2822 3125 2822 3475 
Q 2822 3834 2567 4026 
Q 2313 4219 1838 4219 
Q 1578 4219 1281 4162 
Q 984 4106 628 3988 
L 628 4550 
Q 988 4650 1302 4700 
Q 1616 4750 1894 4750 
Q 2613 4750 3031 4423 
Q 3450 4097 3450 3541 
Q 3450 3153 3228 2886 
Q 3006 2619 2597 2516 
z
" transform="scale(0.015625)"/>
     </defs>
     <use xlink:href="#DejaVuSans-73"/>
     <use xlink:href="#DejaVuSans-71" transform="translate(52.099609 0)"/>
     <use xlink:href="#DejaVuSans-6c" transform="translate(115.576172 0)"/>
     <use xlink:href="#DejaVuSans-69" transform="translate(143.359375 0)"/>
     <use xlink:href="#DejaVuSans-74" transform="translate(171.142578 0)"/>
     <use xlink:href="#DejaVuSans-65" transform="translate(210.351562 0)"/>
     <use xlink:href="#DejaVuSans-33" transform="translate(271.875 0)"/>
    </g>
   </g>
   <g id="text_4">
    <!-- R/W -->
    <g transform="translate(157.368299 153.322764) scale(0.14 -0.14)">
     <defs>
      <path id="DejaVuSans-52" d="M 2841 2188 
Q 3044 2119 3236 1894 
Q 3428 1669 3622 1275 
L 4263 0 
L 3584 0 
L 2988 1197 
Q 2756 1666 2539 1819 
Q 2322 1972 1947 1972 
L 1259 1972 
L 1259 0 
L 628 0 
L 628 4666 
L 2053 4666 
Q 2853 4666 3247 4331 
Q 3641 3997 3641 3322 
Q 3641 2881 3436 2590 
Q 3231 2300 2841 2188 
z
M 1259 4147 
L 1259 2491 
L 2053 2491 
Q 2509 2491 2742 2702 
Q 2975 2913 2975 3322 
Q 2975 3731 2742 3939 
Q 2509 4147 2053 4147 
L 1259 4147 
z
" transform="scale(0.015625)"/>
      <path id="DejaVuSans-2f" d="M 1625 4666 
L 2156 4666 
L 531 -594 
L 0 -594 
L 1625 4666 
z
" transform="scale(0.015625)"/>
      <path id="DejaVuSans-57" d="M 213 4666 
L 850 4666 
L 1831 722 
L 2809 4666 
L 3519 4666 
L 4500 722 
L 5478 4666 
L 6119 4666 
L 4947 0 
L 4153 0 
L 3169 4050 
L 2175 0 
L 1381 0 
L 213 4666 
z
" transform="scale(0.015625)"/>
     </defs>
     <use xlink:href="#DejaVuSans-52"/>
     <use xlink:href="#DejaVuSans-2f" transform="translate(69.482422 0)"/>
     <use xlink:href="#DejaVuSans-57" transform="translate(103.173828 0)"/>
    </g>
   </g>
   <g id="text_5">
    <!-- GET status -->
    <g transform="translate(178.198799 46.597514) scale(0.14 -0.14)">
     <defs>
      <path id="DejaVuSans-47" d="M 3809 666 
L 3809 1919 
L 2778 1919 
L 2778 2438 
L 4434 2438 
L 4434 434 
Q 4069 175 3628 42 
Q 3188 -91 2688 -91 
Q 1594 -91 976 548 
Q 359 1188 359 2328 
Q 359 3472 976 4111 
Q 1594 4750 2688 4750 
Q 3144 4750 3555 4637 
Q 3966 4525 4313 4306 
L 4313 3634 
Q 3963 3931 3569 4081 
Q 3175 4231 2741 4231 
Q 1884 4231 1454 3753 
Q 1025 3275 1025 2328 
Q 1025 1384 1454 906 
Q 1884 428 2741 428 
Q 3075 428 3337 486 
Q 3600 544 3809 666 
z
" transform="scale(0.015625)"/>
      <path id="DejaVuSans-45" d="M 628 4666 
L 3578 4666 
L 3578 4134 
L 1259 4134 
L 1259 2753 
L 3481 2753 
L 3481 2222 
L 1259 2222 
L 1259 531 
L 3634 531 
L 3634 0 
L 628 0 
L 628 4666 
z
" transform="scale(0.015625)"/>
      <path id="DejaVuSans-54" d="M -19 4666 
L 3928 4666 
L 3928 4134 
L 2272 4134 
L 2272 0 
L 1638 0 
L 1638 4134 
L -19 4134 
L -19 4666 
z
" transform="scale(0.015625)"/>
     </defs>
     <use xlink:href="#DejaVuSans-47"/>
     <use xlink:href="#DejaVuSans-45" transform="translate(77.490234 0)"/>
     <use xlink:href="#DejaVuSans-54" transform="translate(140.673828 0)"/>
     <use xlink:href="#DejaVuSans-20" transform="translate(201.757812 0)"/>
     <use xlink:href="#DejaVuSans-73" transform="translate(233.544922 0)"/>
     <use xlink:href="#DejaVuSans-74" transform="translate(285.644531 0)"/>
     <use xlink:href="#DejaVuSans-61" transform="translate(324.853516 0)"/>
     <use xlink:href="#DejaVuSans-74" transform="translate(386.132812 0)"/>
     <use xlink:href="#DejaVuSans-75" transform="translate(425.341797 0)"/>
     <use xlink:href="#DejaVuSans-73" transform="translate(488.720703 0)"/>
    </g>
   </g>
   <g id="text_6">
    <!-- POST [image.png] -->
    <g transform="translate(31.128701 87.488736) scale(0.14 -0.14)">
     <defs>
      <path id="DejaVuSans-4f" d="M 2522 4238 
Q 1834 4238 1429 3725 
Q 1025 3213 1025 2328 
Q 1025 1447 1429 934 
Q 1834 422 2522 422 
Q 3209 422 3611 934 
Q 4013 1447 4013 2328 
Q 4013 3213 3611 3725 
Q 3209 4238 2522 4238 
z
M 2522 4750 
Q 3503 4750 4090 4092 
Q 4678 3434 4678 2328 
Q 4678 1225 4090 567 
Q 3503 -91 2522 -91 
Q 1538 -91 948 565 
Q 359 1222 359 2328 
Q 359 3434 948 4092 
Q 1538 4750 2522 4750 
z
" transform="scale(0.015625)"/>
      <path id="DejaVuSans-5b" d="M 550 4863 
L 1875 4863 
L 1875 4416 
L 1125 4416 
L 1125 -397 
L 1875 -397 
L 1875 -844 
L 550 -844 
L 550 4863 
z
" transform="scale(0.015625)"/>
      <path id="DejaVuSans-67" d="M 2906 1791 
Q 2906 2416 2648 2759 
Q 2391 3103 1925 3103 
Q 1463 3103 1205 2759 
Q 947 2416 947 1791 
Q 947 1169 1205 825 
Q 1463 481 1925 481 
Q 2391 481 2648 825 
Q 2906 1169 2906 1791 
z
M 3481 434 
Q 3481 -459 3084 -895 
Q 2688 -1331 1869 -1331 
Q 1566 -1331 1297 -1286 
Q 1028 -1241 775 -1147 
L 775 -588 
Q 1028 -725 1275 -790 
Q 1522 -856 1778 -856 
Q 2344 -856 2625 -561 
Q 2906 -266 2906 331 
L 2906 616 
Q 2728 306 2450 153 
Q 2172 0 1784 0 
Q 1141 0 747 490 
Q 353 981 353 1791 
Q 353 2603 747 3093 
Q 1141 3584 1784 3584 
Q 2172 3584 2450 3431 
Q 2728 3278 2906 2969 
L 2906 3500 
L 3481 3500 
L 3481 434 
z
" transform="scale(0.015625)"/>
      <path id="DejaVuSans-2e" d="M 684 794 
L 1344 794 
L 1344 0 
L 684 0 
L 684 794 
z
" transform="scale(0.015625)"/>
      <path id="DejaVuSans-6e" d="M 3513 2113 
L 3513 0 
L 2938 0 
L 2938 2094 
Q 2938 2591 2744 2837 
Q 2550 3084 2163 3084 
Q 1697 3084 1428 2787 
Q 1159 2491 1159 1978 
L 1159 0 
L 581 0 
L 581 3500 
L 1159 3500 
L 1159 2956 
Q 1366 3272 1645 3428 
Q 1925 3584 2291 3584 
Q 2894 3584 3203 3211 
Q 3513 2838 3513 2113 
z
" transform="scale(0.015625)"/>
      <path id="DejaVuSans-5d" d="M 1947 4863 
L 1947 -844 
L 622 -844 
L 622 -397 
L 1369 -397 
L 1369 4416 
L 622 4416 
L 622 4863 
L 1947 4863 
z
" transform="scale(0.015625)"/>
     </defs>
     <use xlink:href="#DejaVuSans-50"/>
     <use xlink:href="#DejaVuSans-4f" transform="translate(60.302734 0)"/>
     <use xlink:href="#DejaVuSans-53" transform="translate(139.013672 0)"/>
     <use xlink:href="#DejaVuSans-54" transform="translate(202.490234 0)"/>
     <use xlink:href="#DejaVuSans-20" transform="translate(263.574219 0)"/>
     <use xlink:href="#DejaVuSans-5b" transform="translate(295.361328 0)"/>
     <use xlink:href="#DejaVuSans-69" transform="translate(334.375 0)"/>
     <use xlink:href="#DejaVuSans-6d" transform="translate(362.158203 0)"/>
     <use xlink:href="#DejaVuSans-61" transform="translate(459.570312 0)"/>
     <use xlink:href="#DejaVuSans-67" transform="translate(520.849609 0)"/>
     <use xlink:href="#DejaVuSans-65" transform="translate(584.326172 0)"/>
     <use xlink:href="#DejaVuSans-2e" transform="translate(645.849609 0)"/>
     <use xlink:href="#DejaVuSans-70" transform="translate(677.636719 0)"/>
     <use xlink:href="#DejaVuSans-6e" transform="translate(741.113281 0)"/>
     <use xlink:href="#DejaVuSans-67" transform="translate(804.492188 0)"/>
     <use xlink:href="#DejaVuSans-5d" transform="translate(867.96875 0)"/>
    </g>
   </g>
   <g id="text_7">
    <!-- ESP32 -->
    <g transform="translate(441.930063 173.939375) scale(0.1 -0.1)">
     <defs>
      <path id="DejaVuSans-32" d="M 1228 531 
L 3431 531 
L 3431 0 
L 469 0 
L 469 531 
Q 828 903 1448 1529 
Q 2069 2156 2228 2338 
Q 2531 2678 2651 2914 
Q 2772 3150 2772 3378 
Q 2772 3750 2511 3984 
Q 2250 4219 1831 4219 
Q 1534 4219 1204 4116 
Q 875 4013 500 3803 
L 500 4441 
Q 881 4594 1212 4672 
Q 1544 4750 1819 4750 
Q 2544 4750 2975 4387 
Q 3406 4025 3406 3419 
Q 3406 3131 3298 2873 
Q 3191 2616 2906 2266 
Q 2828 2175 2409 1742 
Q 1991 1309 1228 531 
z
" transform="scale(0.015625)"/>
     </defs>
     <use xlink:href="#DejaVuSans-45"/>
     <use xlink:href="#DejaVuSans-53" transform="translate(63.183594 0)"/>
     <use xlink:href="#DejaVuSans-50" transform="translate(126.660156 0)"/>
     <use xlink:href="#DejaVuSans-33" transform="translate(186.962891 0)"/>
     <use xlink:href="#DejaVuSans-32" transform="translate(250.585938 0)"/>
    </g>
   </g>
   <g id="text_8">
    <!-- E-ink -->
    <g transform="translate(564.024594 171.350313) scale(0.1 -0.1)">
     <defs>
      <path id="DejaVuSans-2d" d="M 313 2009 
L 1997 2009 
L 1997 1497 
L 313 1497 
L 313 2009 
z
" transform="scale(0.015625)"/>
     </defs>
     <use xlink:href="#DejaVuSans-45"/>
     <use xlink:href="#DejaVuSans-2d" transform="translate(63.183594 0)"/>
     <use xlink:href="#DejaVuSans-69" transform="translate(99.267578 0)"/>
     <use xlink:href="#DejaVuSans-6e" transform="translate(127.050781 0)"/>
     <use xlink:href="#DejaVuSans-6b" transform="translate(190.429688 0)"/>
    </g>
    <!-- Display -->
    <g transform="translate(558.010531 181.028437) scale(0.1 -0.1)">
     <defs>
      <path id="DejaVuSans-79" d="M 2059 -325 
Q 1816 -950 1584 -1140 
Q 1353 -1331 966 -1331 
L 506 -1331 
L 506 -850 
L 844 -850 
Q 1081 -850 1212 -737 
Q 1344 -625 1503 -206 
L 1606 56 
L 191 3500 
L 800 3500 
L 1894 763 
L 2988 3500 
L 3597 3500 
L 2059 -325 
z
" transform="scale(0.015625)"/>
     </defs>
     <use xlink:href="#DejaVuSans-44"/>
     <use xlink:href="#DejaVuSans-69" transform="translate(77.001953 0)"/>
     <use xlink:href="#DejaVuSans-73" transform="translate(104.785156 0)"/>
     <use xlink:href="#DejaVuSans-70" transform="translate(156.884766 0)"/>
     <use xlink:href="#DejaVuSans-6c" transform="translate(220.361328 0)"/>
     <use xlink:href="#DejaVuSans-61" transform="translate(248.144531 0)"/>
     <use xlink:href="#DejaVuSans-79" transform="translate(309.423828 0)"/>
    </g>
   </g>
   <g id="text_9">
    <!-- Raspberry Pi -->
    <g transform="translate(426.32225 245.939375) scale(0.1 -0.1)">
     <use xlink:href="#DejaVuSans-52"/>
     <use xlink:href="#DejaVuSans-61" transform="translate(67.232422 0)"/>
     <use xlink:href="#DejaVuSans-73" transform="translate(128.511719 0)"/>
     <use xlink:href="#DejaVuSans-70" transform="translate(180.611328 0)"/>
     <use xlink:href="#DejaVuSans-62" transform="translate(244.087891 0)"/>
     <use xlink:href="#DejaVuSans-65" transform="translate(307.564453 0)"/>
     <use xlink:href="#DejaVuSans-72" transform="translate(369.087891 0)"/>
     <use xlink:href="#DejaVuSans-72" transform="translate(408.451172 0)"/>
     <use xlink:href="#DejaVuSans-79" transform="translate(449.564453 0)"/>
     <use xlink:href="#DejaVuSans-20" transform="translate(508.744141 0)"/>
     <use xlink:href="#DejaVuSans-50" transform="translate(540.53125 0)"/>
     <use xlink:href="#DejaVuSans-69" transform="translate(598.583984 0)"/>
    </g>
   </g>
   <g id="text_10">
    <!-- E-ink -->
    <g transform="translate(564.024594 243.350313) scale(0.1 -0.1)">
     <use xlink:href="#DejaVuSans-45"/>
     <use xlink:href="#DejaVuSans-2d" transform="translate(63.183594 0)"/>
     <use xlink:href="#DejaVuSans-69" transform="translate(99.267578 0)"/>
     <use xlink:href="#DejaVuSans-6e" transform="translate(127.050781 0)"/>
     <use xlink:href="#DejaVuSans-6b" transform="translate(190.429688 0)"/>
    </g>
    <!-- Display -->
    <g transform="translate(558.010531 253.028438) scale(0.1 -0.1)">
     <use xlink:href="#DejaVuSans-44"/>
     <use xlink:href="#DejaVuSans-69" transform="translate(77.001953 0)"/>
     <use xlink:href="#DejaVuSans-73" transform="translate(104.785156 0)"/>
     <use xlink:href="#DejaVuSans-70" transform="translate(156.884766 0)"/>
     <use xlink:href="#DejaVuSans-6c" transform="translate(220.361328 0)"/>
     <use xlink:href="#DejaVuSans-61" transform="translate(248.144531 0)"/>
     <use xlink:href="#DejaVuSans-79" transform="translate(309.423828 0)"/>
    </g>
   </g>
   <g id="text_11">
    <!-- sleep -->
    <g transform="translate(472.227797 103.734301) scale(0.14 -0.14)">
     <use xlink:href="#DejaVuSans-73"/>
     <use xlink:href="#DejaVuSans-6c" transform="translate(52.099609 0)"/>
     <use xlink:href="#DejaVuSans-65" transform="translate(79.882812 0)"/>
     <use xlink:href="#DejaVuSans-65" transform="translate(141.40625 0)"/>
     <use xlink:href="#DejaVuSans-70" transform="translate(202.929688 0)"/>
    </g>
   </g>
   <g id="text_12">
    <!-- GET image.png -->
    <g transform="translate(352.913701 120.713486) scale(0.14 -0.14)">
     <use xlink:href="#DejaVuSans-47"/>
     <use xlink:href="#DejaVuSans-45" transform="translate(77.490234 0)"/>
     <use xlink:href="#DejaVuSans-54" transform="translate(140.673828 0)"/>
     <use xlink:href="#DejaVuSans-20" transform="translate(201.757812 0)"/>
     <use xlink:href="#DejaVuSans-69" transform="translate(233.544922 0)"/>
     <use xlink:href="#DejaVuSans-6d" transform="translate(261.328125 0)"/>
     <use xlink:href="#DejaVuSans-61" transform="translate(358.740234 0)"/>
     <use xlink:href="#DejaVuSans-67" transform="translate(420.019531 0)"/>
     <use xlink:href="#DejaVuSans-65" transform="translate(483.496094 0)"/>
     <use xlink:href="#DejaVuSans-2e" transform="translate(545.019531 0)"/>
     <use xlink:href="#DejaVuSans-70" transform="translate(576.806641 0)"/>
     <use xlink:href="#DejaVuSans-6e" transform="translate(640.283203 0)"/>
     <use xlink:href="#DejaVuSans-67" transform="translate(703.662109 0)"/>
    </g>
   </g>
   <g id="text_13">
    <!-- POST image.png -->
    <g transform="translate(229.289076 193.372764) scale(0.14 -0.14)">
     <use xlink:href="#DejaVuSans-50"/>
     <use xlink:href="#DejaVuSans-4f" transform="translate(60.302734 0)"/>
     <use xlink:href="#DejaVuSans-53" transform="translate(139.013672 0)"/>
     <use xlink:href="#DejaVuSans-54" transform="translate(202.490234 0)"/>
     <use xlink:href="#DejaVuSans-20" transform="translate(263.574219 0)"/>
     <use xlink:href="#DejaVuSans-69" transform="translate(295.361328 0)"/>
     <use xlink:href="#DejaVuSans-6d" transform="translate(323.144531 0)"/>
     <use xlink:href="#DejaVuSans-61" transform="translate(420.556641 0)"/>
     <use xlink:href="#DejaVuSans-67" transform="translate(481.835938 0)"/>
     <use xlink:href="#DejaVuSans-65" transform="translate(545.3125 0)"/>
     <use xlink:href="#DejaVuSans-2e" transform="translate(606.835938 0)"/>
     <use xlink:href="#DejaVuSans-70" transform="translate(638.623047 0)"/>
     <use xlink:href="#DejaVuSans-6e" transform="translate(702.099609 0)"/>
     <use xlink:href="#DejaVuSans-67" transform="translate(765.478516 0)"/>
    </g>
   </g>
  </g>
 </g>
 <defs>
  <clipPath id="pe57781407b">
   <rect x="0" y="0" width="635.121" height="274.86"/>
  </clipPath>
 </defs>
</svg>
